<svg width="61" height="62" viewBox="0 0 61 62" fill="none" xmlns="http://www.w3.org/2000/svg">
<g clip-path="url(#clip0_298_353)">
<path d="M30.8183 0.593112C31.8145 0.593112 32.7954 0.657746 33.7078 0.809824C34.6069 0.925629 35.4937 1.12158 36.3578 1.39533C37.2196 1.65386 38.0738 1.98717 38.9203 2.39525C39.7454 2.78685 40.5932 3.2659 41.4411 3.78677C42.8744 4.69924 44.2849 5.43682 45.7221 6.02613C48.5506 7.16079 51.5427 7.83469 54.5845 8.02216C56.123 8.13622 57.716 8.19452 59.3635 8.19705V23.4049C59.3635 26.2919 58.9948 29.0369 58.2572 31.64C57.5485 34.2109 56.5418 36.6901 55.2574 39.0272C53.9786 41.3612 52.4652 43.5587 50.7407 45.5856C48.9908 47.6597 47.0951 49.6061 45.0681 51.4103C43.0126 53.2174 40.8504 54.8997 38.5934 56.4479C36.3325 58.0194 34.0589 59.4679 31.7726 60.7935L30.8602 61.3372L29.9477 60.7935C27.6024 59.4362 25.3119 57.9865 23.0813 56.4479C20.8122 54.9163 18.649 53.2332 16.6066 51.4103C14.5809 49.606 12.6865 47.6595 10.9378 45.5856C9.21916 43.5491 7.69907 41.353 6.39828 39.0272C5.13702 36.6792 4.13134 34.2026 3.39853 31.64C2.66118 28.9576 2.29531 26.1868 2.31116 23.4049V8.19705C3.95868 8.19452 5.55298 8.13622 7.09404 8.02216C8.61378 7.91886 10.1236 7.70153 11.6108 7.37203C13.0669 7.04506 14.5231 6.61163 15.9564 6.02613C17.4434 5.42506 18.8693 4.68282 20.2146 3.80958C21.8875 2.72222 23.5832 1.92 25.2561 1.39153C27.0578 0.83982 28.9342 0.57049 30.8183 0.593112ZM55.5388 11.9344C52.6609 11.7935 49.8099 11.3124 47.0452 10.501C44.2961 9.67887 41.6772 8.47182 39.2663 6.91579C38.0155 6.09687 36.6582 5.45341 35.2324 5.0034C33.8074 4.57362 32.3258 4.36086 30.8374 4.37227C29.3379 4.36313 27.8453 4.57581 26.4081 5.0034C24.9806 5.44 23.6253 6.08437 22.3856 6.91579C19.9697 8.47875 17.3442 9.69099 14.5877 10.5163C11.8934 11.2995 9.06853 11.7785 6.11313 11.9534V23.4239C6.11313 25.9409 6.4401 28.3589 7.09404 30.6781C7.76083 32.9807 8.67882 35.203 9.83146 37.3049C10.9984 39.4285 12.3739 41.4306 13.9376 43.2816C15.523 45.1484 17.2149 46.8859 19.0398 48.536C20.8648 50.186 22.7772 51.7144 24.777 53.1211C26.7971 54.5304 28.8172 55.8193 30.8374 56.9878C32.9055 55.7859 34.9211 54.4958 36.8787 53.1211C38.8941 51.7183 40.8169 50.1867 42.6349 48.536C44.4598 46.8859 46.1555 45.1484 47.7409 43.2816C49.3046 41.4306 50.6801 39.4285 51.8471 37.3049C52.9939 35.2053 53.8982 32.9821 54.5426 30.6781C55.2172 28.3196 55.5526 25.877 55.5388 23.4239V11.9344Z" fill="#3CA2B3"/>
<path fill-rule="evenodd" clip-rule="evenodd" d="M44.9921 18.4957L43.3192 17.0586L41.7756 17.1917L25.199 36.7642L19.5531 28.704L18.0323 28.4455L16.272 29.704L16.0096 31.2247L23.2676 41.5889L24.0926 42.0452L25.8301 42.1516L26.7198 41.7638L45.1023 20.0355L44.9921 18.4957Z" fill="#3CA2B3"/>
</g>
<defs>
<clipPath id="clip0_298_353">
<rect width="60.8315" height="60.8315" fill="white" transform="translate(0.140137 0.591797)"/>
</clipPath>
</defs>
</svg>
