<svg width="52" height="70" viewBox="0 0 52 70" fill="none" xmlns="http://www.w3.org/2000/svg">
<path d="M8.62863 2.55677L13.3715 1.12819C15.5305 0.476835 17.8528 0.633429 19.9048 1.56875C21.9568 2.50406 23.5983 4.15418 24.5229 6.21105L27.4743 12.7768C28.2696 14.5455 28.4912 16.5189 28.1079 18.4199C27.7246 20.321 26.7557 22.0544 25.3372 23.3768L20.1801 28.1853C20.1183 28.2466 20.0663 28.317 20.0258 28.3939C19.4858 29.4968 20.3058 32.4425 22.8743 36.8939C25.7715 41.911 28.0086 43.8939 29.0458 43.5882L35.8143 41.5168C37.668 40.9507 39.6523 40.9789 41.4892 41.5973C43.326 42.2157 44.9233 43.3934 46.0572 44.9653L50.2515 50.7739C51.5683 52.5977 52.1783 54.8375 51.9681 57.0772C51.7579 59.3169 50.7418 61.4041 49.1086 62.951L45.5001 66.3653C44.2452 67.554 42.7214 68.4214 41.0587 68.8935C39.396 69.3656 37.6438 69.4285 35.9515 69.0768C25.9029 66.9853 16.9001 58.8939 8.86578 44.9796C0.828633 31.0568 -1.67708 19.1996 1.55149 9.44819C2.09193 7.81564 3.01741 6.33715 4.24971 5.13767C5.48202 3.93819 6.98208 3.05295 8.62863 2.55677ZM9.87149 6.65962C8.88352 6.9572 7.98169 7.48822 7.24221 8.20781C6.50272 8.9274 5.94732 9.81441 5.62292 10.7939C2.84006 19.1968 5.09435 29.871 12.5801 42.8368C20.0601 55.7939 28.1686 63.0796 36.8286 64.8796C37.844 65.0904 38.8954 65.0523 39.8929 64.7687C40.8904 64.4851 41.8045 63.9644 42.5572 63.251L46.1629 59.8396C47.0426 59.0069 47.5901 57.883 47.7036 56.677C47.8171 55.471 47.489 54.2648 46.7801 53.2825L42.5858 47.4711C41.9753 46.6248 41.1154 45.9908 40.1266 45.6577C39.1377 45.3247 38.0695 45.3094 37.0715 45.6139L30.2858 47.691C26.5315 48.8082 23.0001 45.6796 19.1658 39.0339C15.9172 33.411 14.7915 29.3482 16.1801 26.5111C16.4505 25.9587 16.8105 25.472 17.2601 25.0511L22.4172 20.2425C23.1813 19.5304 23.7033 18.597 23.9098 17.5731C24.1163 16.5493 23.997 15.4865 23.5686 14.5339L20.6143 7.97105C20.1165 6.86322 19.2324 5.97448 18.1273 5.47078C17.0221 4.96709 15.7713 4.88289 14.6086 5.23391L9.87149 6.65962Z" fill="#3CA2B3"/>
</svg>
