<svg width="44" height="44" viewBox="0 0 44 44" fill="none" xmlns="http://www.w3.org/2000/svg">
<path d="M35.75 35.75H33.3929V29.8571C33.391 28.2948 32.7695 26.7971 31.6648 25.6923C30.5601 24.5876 29.0623 23.9662 27.5 23.9643V21.6071C29.6871 21.6103 31.7837 22.4805 33.3302 24.027C34.8767 25.5735 35.7469 27.6701 35.75 29.8571V35.75ZM26.3214 35.75H23.9643V29.8571C23.9624 28.2948 23.341 26.7971 22.2362 25.6923C21.1315 24.5876 19.6337 23.9662 18.0714 23.9643H11C9.43769 23.9662 7.93991 24.5876 6.83519 25.6923C5.73047 26.7971 5.10901 28.2948 5.10714 29.8571V35.75H2.75V29.8571C2.75312 27.6701 3.62331 25.5735 5.16981 24.027C6.71631 22.4805 8.81292 21.6103 11 21.6071H18.0714C20.2585 21.6103 22.3551 22.4805 23.9016 24.027C25.4481 25.5735 26.3183 27.6701 26.3214 29.8571V35.75ZM23.9643 2.75V5.10714C25.5272 5.10714 27.026 5.728 28.1312 6.83312C29.2363 7.93825 29.8571 9.43712 29.8571 11C29.8571 12.5629 29.2363 14.0618 28.1312 15.1669C27.026 16.272 25.5272 16.8929 23.9643 16.8929V19.25C26.1523 19.25 28.2507 18.3808 29.7979 16.8336C31.3451 15.2865 32.2143 13.188 32.2143 11C32.2143 8.81196 31.3451 6.71354 29.7979 5.16637C28.2507 3.61919 26.1523 2.75 23.9643 2.75ZM14.5357 5.10714C15.7012 5.10714 16.8405 5.45275 17.8096 6.10027C18.7787 6.74778 19.534 7.66812 19.98 8.7449C20.426 9.82168 20.5427 11.0065 20.3153 12.1496C20.088 13.2927 19.5267 14.3427 18.7026 15.1669C17.8785 15.991 16.8285 16.5523 15.6854 16.7796C14.5423 17.007 13.3574 16.8903 12.2806 16.4443C11.2038 15.9983 10.2835 15.243 9.63598 14.2739C8.98847 13.3048 8.64286 12.1655 8.64286 11C8.64286 9.43712 9.26371 7.93825 10.3688 6.83312C11.474 5.728 12.9728 5.10714 14.5357 5.10714ZM14.5357 2.75C12.904 2.75 11.309 3.23385 9.95226 4.14038C8.59555 5.0469 7.53813 6.33537 6.91371 7.84286C6.28929 9.35035 6.12591 11.0092 6.44424 12.6095C6.76256 14.2098 7.5483 15.6798 8.70208 16.8336C9.85587 17.9874 11.3259 18.7732 12.9262 19.0915C14.5266 19.4098 16.1854 19.2464 17.6929 18.622C19.2003 17.9976 20.4888 16.9402 21.3953 15.5835C22.3019 14.2267 22.7857 12.6317 22.7857 11C22.7857 8.81196 21.9165 6.71354 20.3693 5.16637C18.8222 3.61919 16.7238 2.75 14.5357 2.75Z" fill="black"/>
</svg>
