<svg width="80" height="80" viewBox="0 0 80 80" fill="none" xmlns="http://www.w3.org/2000/svg">
<path d="M24.5499 12.1504C23.6212 16.6624 22.9645 21.2262 22.5833 25.8171C22.5833 31.2337 26.1166 35.8171 30.7499 38.6004C33.027 39.9503 35.557 40.8182 38.1833 41.1504V64.7337C31.9499 65.0004 27.1499 66.5504 27.1499 68.6004C27.1499 70.6504 32.9166 72.5004 39.9999 72.5004C47.0833 72.5004 52.8833 70.7004 52.8833 68.6004C52.8756 68.3413 52.8009 68.0887 52.6666 67.8671C51.6666 66.2004 47.2999 64.9671 41.8333 64.7337V41.1504C49.5166 40.2504 57.3833 34.0004 57.3833 25.8171C57.0008 21.2412 56.3665 16.6898 55.4833 12.1837M57.1499 28.0337C56.3901 28.2614 55.6162 28.4396 54.8333 28.5671C50.3052 29.4696 45.6082 28.9335 41.3999 27.0337C35.5136 24.5375 29.0984 23.5466 22.7333 24.1504" stroke="#3CA2B3" stroke-width="4" stroke-linecap="round" stroke-linejoin="round"/>
<path d="M40.0167 16.4329C48.5587 16.4329 55.4834 14.5152 55.4834 12.1495C55.4834 9.78392 48.5587 7.86621 40.0167 7.86621C31.4747 7.86621 24.55 9.78392 24.55 12.1495C24.55 14.5152 31.4747 16.4329 40.0167 16.4329Z" stroke="#3CA2B3" stroke-width="4" stroke-linecap="round" stroke-linejoin="round"/>
<path d="M38.1833 41.1504C38.1833 41.1504 39.5333 41.2837 39.9833 41.2837C40.4333 41.2837 41.8334 41.1504 41.8334 41.1504" stroke="#3CA2B3" stroke-width="0.5" stroke-linecap="round" stroke-linejoin="round"/>
</svg>
