<svg width="28" height="28" viewBox="0 0 28 28" fill="none" xmlns="http://www.w3.org/2000/svg">
<g clip-path="url(#clip0_69_282)">
<path d="M7.9422 0C8.20211 0 8.45138 0.10325 8.63517 0.287035C8.81895 0.470821 8.9222 0.720088 8.9222 0.98V2.8126H19.446V0.9926C19.446 0.732688 19.5492 0.483421 19.733 0.299635C19.9168 0.11585 20.1661 0.0126 20.426 0.0126C20.6859 0.0126 20.9352 0.11585 21.119 0.299635C21.3027 0.483421 21.406 0.732688 21.406 0.9926V2.8126H25.2C25.9424 2.8126 26.6543 3.10741 27.1794 3.63221C27.7045 4.157 27.9996 4.86884 28 5.6112V25.2014C27.9996 25.9438 27.7045 26.6556 27.1794 27.1804C26.6543 27.7052 25.9424 28 25.2 28H2.8C2.05764 28 1.34566 27.7052 0.820596 27.1804C0.295534 26.6556 0.000371182 25.9438 0 25.2014L0 5.6112C0.000371182 4.86884 0.295534 4.157 0.820596 3.63221C1.34566 3.10741 2.05764 2.8126 2.8 2.8126H6.9622V0.9786C6.96257 0.71893 7.06598 0.470023 7.24973 0.28654C7.43348 0.103057 7.68253 -2.64969e-07 7.9422 0ZM1.96 10.8388V25.2014C1.96 25.3117 1.98173 25.4209 2.02394 25.5229C2.06616 25.6248 2.12803 25.7174 2.20603 25.7954C2.28403 25.8734 2.37663 25.9352 2.47855 25.9775C2.58046 26.0197 2.68969 26.0414 2.8 26.0414H25.2C25.3103 26.0414 25.4195 26.0197 25.5215 25.9775C25.6234 25.9352 25.716 25.8734 25.794 25.7954C25.872 25.7174 25.9338 25.6248 25.9761 25.5229C26.0183 25.4209 26.04 25.3117 26.04 25.2014V10.8584L1.96 10.8388ZM9.3338 20.4666V22.799H7V20.4666H9.3338ZM15.1662 20.4666V22.799H12.8338V20.4666H15.1662ZM21 20.4666V22.799H18.6662V20.4666H21ZM9.3338 14.8988V17.2312H7V14.8988H9.3338ZM15.1662 14.8988V17.2312H12.8338V14.8988H15.1662ZM21 14.8988V17.2312H18.6662V14.8988H21ZM6.9622 4.7712H2.8C2.68969 4.7712 2.58046 4.79293 2.47855 4.83514C2.37663 4.87736 2.28403 4.93923 2.20603 5.01723C2.12803 5.09523 2.06616 5.18783 2.02394 5.28975C1.98173 5.39166 1.96 5.50089 1.96 5.6112V8.8802L26.04 8.8998V5.6112C26.04 5.50089 26.0183 5.39166 25.9761 5.28975C25.9338 5.18783 25.872 5.09523 25.794 5.01723C25.716 4.93923 25.6234 4.87736 25.5215 4.83514C25.4195 4.79293 25.3103 4.7712 25.2 4.7712H21.406V6.0718C21.406 6.33171 21.3027 6.58098 21.119 6.76476C20.9352 6.94855 20.6859 7.0518 20.426 7.0518C20.1661 7.0518 19.9168 6.94855 19.733 6.76476C19.5492 6.58098 19.446 6.33171 19.446 6.0718V4.7712H8.9222V6.0592C8.9222 6.31911 8.81895 6.56838 8.63517 6.75216C8.45138 6.93595 8.20211 7.0392 7.9422 7.0392C7.68229 7.0392 7.43302 6.93595 7.24924 6.75216C7.06545 6.56838 6.9622 6.31911 6.9622 6.0592V4.7712Z" fill="black"/>
</g>
<defs>
<clipPath id="clip0_69_282">
<rect width="28" height="28" fill="white"/>
</clipPath>
</defs>
</svg>
