<svg width="28" height="25" viewBox="0 0 28 25" fill="none" xmlns="http://www.w3.org/2000/svg">
<path fill-rule="evenodd" clip-rule="evenodd" d="M7.96634 4.72033C6.86037 5.81001 6.01495 7.13553 5.49325 8.59785C4.97154 10.0602 4.78705 11.6215 4.95354 13.1651C4.96903 13.3725 4.90319 13.5777 4.76996 13.7374C4.63673 13.897 4.44658 13.9985 4.2398 14.0203C4.03302 14.0422 3.82586 13.9826 3.66222 13.8544C3.49858 13.7261 3.3913 13.5391 3.36314 13.3331C3.1711 11.5502 3.38434 9.747 3.98694 8.05808C4.58953 6.36916 5.5659 4.8382 6.84314 3.57953C11.5423 -1.05567 19.1231 -0.98047 23.7743 3.73633C28.4255 8.45153 28.3951 16.0323 23.6943 20.6675C21.5185 22.8172 18.5974 24.0447 15.5391 24.0947C14.3829 24.1153 13.2297 23.9693 12.1151 23.6611C11.9106 23.6047 11.7369 23.4693 11.6321 23.2848C11.5274 23.1002 11.5003 22.8817 11.5567 22.6771C11.6132 22.4726 11.7486 22.2989 11.9331 22.1941C12.1176 22.0894 12.3362 22.0623 12.5407 22.1187C13.5074 22.3861 14.5075 22.5127 15.5103 22.4947C18.1582 22.4524 20.6876 21.3898 22.5711 19.5283C26.6367 15.5187 26.6703 8.95233 22.6351 4.85953C18.5999 0.76673 12.0319 0.71073 7.96634 4.72033Z" fill="black"/>
<path fill-rule="evenodd" clip-rule="evenodd" d="M4.75038 14.1809C4.68041 14.2593 4.5957 14.3231 4.50106 14.3687C4.40643 14.4144 4.30373 14.4409 4.19884 14.4469C4.09394 14.4528 3.9889 14.438 3.88972 14.4034C3.79054 14.3687 3.69915 14.3149 3.62078 14.2449L0.86878 11.7969C0.784181 11.729 0.714279 11.6446 0.663323 11.5488C0.612367 11.453 0.581422 11.3479 0.57237 11.2398C0.563318 11.1317 0.576348 11.0229 0.610667 10.92C0.644987 10.8171 0.699879 10.7222 0.772006 10.6412C0.844133 10.5601 0.931988 10.4946 1.03023 10.4486C1.12847 10.4026 1.23504 10.377 1.34347 10.3735C1.4519 10.3699 1.55991 10.3885 1.66094 10.428C1.76198 10.4675 1.85392 10.5271 1.93118 10.6033L4.68318 13.0513C4.76178 13.1211 4.82587 13.2056 4.87179 13.3001C4.91771 13.3946 4.94455 13.4973 4.95079 13.6022C4.95703 13.7071 4.94255 13.8122 4.90816 13.9115C4.87377 14.0108 4.82016 14.1023 4.75038 14.1809Z" fill="black"/>
<path fill-rule="evenodd" clip-rule="evenodd" d="M3.51205 14.0804C3.57509 14.1644 3.65406 14.2352 3.74446 14.2888C3.83486 14.3423 3.93492 14.3775 4.03892 14.3924C4.14292 14.4072 4.24883 14.4014 4.3506 14.3754C4.45237 14.3493 4.54801 14.3034 4.63205 14.2404L7.83205 11.8404C8.00179 11.7131 8.11401 11.5236 8.14401 11.3135C8.17402 11.1035 8.11936 10.8901 7.99205 10.7204C7.86475 10.5507 7.67523 10.4384 7.46519 10.4084C7.25515 10.3784 7.04179 10.4331 6.87205 10.5604L3.67205 12.9604C3.50232 13.0877 3.3901 13.2772 3.36009 13.4873C3.33009 13.6973 3.38475 13.9107 3.51205 14.0804ZM15.0001 6.40039C15.2122 6.40039 15.4157 6.48468 15.5657 6.63471C15.7158 6.78473 15.8001 6.98822 15.8001 7.20039V12.8004C15.8001 13.0126 15.7158 13.216 15.5657 13.3661C15.4157 13.5161 15.2122 13.6004 15.0001 13.6004C14.7879 13.6004 14.5844 13.5161 14.4344 13.3661C14.2843 13.216 14.2001 13.0126 14.2001 12.8004V7.20039C14.2001 6.98822 14.2843 6.78473 14.4344 6.63471C14.5844 6.48468 14.7879 6.40039 15.0001 6.40039Z" fill="black"/>
<path fill-rule="evenodd" clip-rule="evenodd" d="M20.6 12.8C20.6 13.0122 20.5157 13.2157 20.3656 13.3657C20.2156 13.5157 20.0121 13.6 19.8 13.6H15C14.7878 13.6 14.5843 13.5157 14.4343 13.3657C14.2842 13.2157 14.2 13.0122 14.2 12.8C14.2 12.5878 14.2842 12.3843 14.4343 12.2343C14.5843 12.0843 14.7878 12 15 12H19.8C20.0121 12 20.2156 12.0843 20.3656 12.2343C20.5157 12.3843 20.6 12.5878 20.6 12.8Z" fill="black"/>
</svg>
