<svg width="18" height="20" viewBox="0 0 18 20" fill="none" xmlns="http://www.w3.org/2000/svg">
<path d="M16.5 2H14.25V1.25C14.25 1.05109 14.171 0.860322 14.0303 0.71967C13.8897 0.579018 13.6989 0.5 13.5 0.5C13.3011 0.5 13.1103 0.579018 12.9697 0.71967C12.829 0.860322 12.75 1.05109 12.75 1.25V2H5.25V1.25C5.25 1.05109 5.17098 0.860322 5.03033 0.71967C4.88968 0.579018 4.69891 0.5 4.5 0.5C4.30109 0.5 4.11032 0.579018 3.96967 0.71967C3.82902 0.860322 3.75 1.05109 3.75 1.25V2H1.5C1.10218 2 0.720644 2.15804 0.43934 2.43934C0.158035 2.72064 0 3.10218 0 3.5V18.5C0 18.8978 0.158035 19.2794 0.43934 19.5607C0.720644 19.842 1.10218 20 1.5 20H16.5C16.8978 20 17.2794 19.842 17.5607 19.5607C17.842 19.2794 18 18.8978 18 18.5V3.5C18 3.10218 17.842 2.72064 17.5607 2.43934C17.2794 2.15804 16.8978 2 16.5 2ZM9 14.75C8.70333 14.75 8.41332 14.662 8.16665 14.4972C7.91997 14.3324 7.72771 14.0981 7.61418 13.824C7.50065 13.5499 7.47094 13.2483 7.52882 12.9574C7.5867 12.6664 7.72956 12.3991 7.93934 12.1893C8.14912 11.9796 8.41639 11.8367 8.70737 11.7788C8.99834 11.7209 9.29994 11.7506 9.57403 11.8642C9.84811 11.9777 10.0824 12.17 10.2472 12.4166C10.412 12.6633 10.5 12.9533 10.5 13.25C10.5 13.6478 10.342 14.0294 10.0607 14.3107C9.77936 14.592 9.39782 14.75 9 14.75ZM16.5 6.5H1.5V3.5H3.75V4.25C3.75 4.44891 3.82902 4.63968 3.96967 4.78033C4.11032 4.92098 4.30109 5 4.5 5C4.69891 5 4.88968 4.92098 5.03033 4.78033C5.17098 4.63968 5.25 4.44891 5.25 4.25V3.5H12.75V4.25C12.75 4.44891 12.829 4.63968 12.9697 4.78033C13.1103 4.92098 13.3011 5 13.5 5C13.6989 5 13.8897 4.92098 14.0303 4.78033C14.171 4.63968 14.25 4.44891 14.25 4.25V3.5H16.5V6.5Z" fill="white"/>
</svg>
