<svg width="361" height="123" viewBox="0 0 361 123" fill="none" xmlns="http://www.w3.org/2000/svg">
<path d="M122 61.524C122 28.6498 148.65 2 181.524 2C212.814 2 238.179 27.3655 238.179 58.6554V122.419H180.34C148.12 122.419 122 96.2999 122 64.0798V61.524Z" fill="#D26B81"/>
<path d="M238 122.115L360.115 122.115V-0.000106812L297.816 -0.000106812C264.781 -0.000106812 238 26.7807 238 59.8165L238 122.115Z" fill="#58A777"/>
<path d="M310.231 79.0967C310.177 79.562 309.756 79.8957 309.291 79.842L301.709 78.9671C301.244 78.9135 300.91 78.4928 300.964 78.0275C301.017 77.5622 301.438 77.2286 301.903 77.2823L308.643 78.0599L309.42 71.3204C309.474 70.8552 309.895 70.5215 310.36 70.5752C310.825 70.6289 311.159 71.0496 311.105 71.5148L310.231 79.0967ZM288.974 51.8956L310.052 78.4726L308.724 79.5265L287.645 52.9495L288.974 51.8956Z" fill="white"/>
<circle cx="60.2097" cy="61.2097" r="60.2097" fill="#E3B134"/>
<circle cx="60.2097" cy="61.2097" r="19.9286" stroke="white" stroke-width="0.848024"/>
<circle cx="60.2097" cy="61.2097" r="8.48024" fill="white"/>
</svg>
