<svg width="20" height="20" viewBox="0 0 20 20" fill="none" xmlns="http://www.w3.org/2000/svg">
<path d="M10 0.25C8.07164 0.25 6.18657 0.821828 4.58319 1.89317C2.97982 2.96451 1.73013 4.48726 0.992179 6.26884C0.254225 8.05042 0.061142 10.0108 0.437348 11.9021C0.813554 13.7934 1.74215 15.5307 3.10571 16.8943C4.46928 18.2579 6.20656 19.1865 8.09787 19.5627C9.98919 19.9389 11.9496 19.7458 13.7312 19.0078C15.5127 18.2699 17.0355 17.0202 18.1068 15.4168C19.1782 13.8134 19.75 11.9284 19.75 10C19.7473 7.41498 18.7192 4.93661 16.8913 3.10872C15.0634 1.28084 12.585 0.25273 10 0.25ZM10 16C9.7775 16 9.55999 15.934 9.37499 15.8104C9.18998 15.6868 9.04579 15.5111 8.96064 15.3055C8.87549 15.1 8.85321 14.8738 8.89662 14.6555C8.94003 14.4373 9.04718 14.2368 9.20451 14.0795C9.36184 13.9222 9.5623 13.815 9.78053 13.7716C9.99876 13.7282 10.225 13.7505 10.4305 13.8356C10.6361 13.9208 10.8118 14.065 10.9354 14.25C11.059 14.435 11.125 14.6525 11.125 14.875C11.125 15.1734 11.0065 15.4595 10.7955 15.6705C10.5845 15.8815 10.2984 16 10 16ZM10.75 11.4325V11.5C10.75 11.6989 10.671 11.8897 10.5303 12.0303C10.3897 12.171 10.1989 12.25 10 12.25C9.80109 12.25 9.61033 12.171 9.46967 12.0303C9.32902 11.8897 9.25 11.6989 9.25 11.5V10.75C9.25 10.5511 9.32902 10.3603 9.46967 10.2197C9.61033 10.079 9.80109 10 10 10C11.2403 10 12.25 9.15625 12.25 8.125C12.25 7.09375 11.2403 6.25 10 6.25C8.75969 6.25 7.75 7.09375 7.75 8.125V8.5C7.75 8.69891 7.67099 8.88968 7.53033 9.03033C7.38968 9.17098 7.19892 9.25 7 9.25C6.80109 9.25 6.61033 9.17098 6.46967 9.03033C6.32902 8.88968 6.25 8.69891 6.25 8.5V8.125C6.25 6.26406 7.93188 4.75 10 4.75C12.0681 4.75 13.75 6.26406 13.75 8.125C13.75 9.75437 12.46 11.1184 10.75 11.4325Z" fill="white"/>
</svg>
