<svg width="36" height="36" viewBox="0 0 36 36" fill="none" xmlns="http://www.w3.org/2000/svg">
<path d="M18.0038 11.625C16.8103 11.625 15.6657 12.0991 14.8218 12.943C13.9779 13.7869 13.5038 14.9315 13.5038 16.125C13.5038 17.3185 13.9779 18.4631 14.8218 19.307C15.6657 20.1509 16.8103 20.625 18.0038 20.625C19.1972 20.625 20.3418 20.1509 21.1858 19.307C22.0297 18.4631 22.5038 17.3185 22.5038 16.125C22.5038 14.9315 22.0297 13.7869 21.1858 12.943C20.3418 12.0991 19.1972 11.625 18.0038 11.625ZM15.3788 16.125C15.3788 15.4288 15.6553 14.7611 16.1476 14.2688C16.6399 13.7766 17.3076 13.5 18.0038 13.5C18.7 13.5 19.3676 13.7766 19.8599 14.2688C20.3522 14.7611 20.6288 15.4288 20.6288 16.125C20.6288 16.8212 20.3522 17.4889 19.8599 17.9812C19.3676 18.4734 18.7 18.75 18.0038 18.75C17.3076 18.75 16.6399 18.4734 16.1476 17.9812C15.6553 17.4889 15.3788 16.8212 15.3788 16.125ZM27.75 24L20.184 32.0325C19.9035 32.3303 19.5651 32.5677 19.1895 32.7299C18.8139 32.8921 18.4091 32.9758 18 32.9758C17.5909 32.9758 17.1861 32.8921 16.8105 32.7299C16.4349 32.5677 16.0965 32.3303 15.816 32.0325L8.25002 24H8.27852L8.26577 23.985L8.25002 23.9662C6.30793 21.6696 5.24473 18.7577 5.25002 15.75C5.25002 8.70825 10.9583 3 18 3C25.0418 3 30.75 8.70825 30.75 15.75C30.7553 18.7577 29.6921 21.6696 27.75 23.9662L27.7343 23.985L27.7215 24H27.75ZM26.2928 22.7858C27.964 20.8229 28.8797 18.3279 28.875 15.75C28.875 9.744 24.006 4.875 18 4.875C11.994 4.875 7.12502 9.744 7.12502 15.75C7.12033 18.3279 8.03602 20.8229 9.70727 22.7858L9.93827 23.058L17.181 30.7463C17.2862 30.8579 17.4131 30.9469 17.554 31.0078C17.6948 31.0686 17.8466 31.1 18 31.1C18.1534 31.1 18.3052 31.0686 18.4461 31.0078C18.5869 30.9469 18.7138 30.8579 18.819 30.7463L26.0618 23.058L26.2928 22.7858Z" fill="black"/>
</svg>
