<svg width="75" height="80" viewBox="0 0 75 80" fill="none" xmlns="http://www.w3.org/2000/svg">
<path d="M37.5 35C34.1848 35 31.0054 33.683 28.6612 31.3388C26.317 28.9946 25 25.8152 25 22.5C25 19.1848 26.317 16.0054 28.6612 13.6612C31.0054 11.317 34.1848 10 37.5 10C40.8152 10 43.9946 11.317 46.3388 13.6612C48.683 16.0054 50 19.1848 50 22.5C50 25.8152 48.683 28.9946 46.3388 31.3388C43.9946 33.683 40.8152 35 37.5 35ZM37.5 15C33.35 15 30 18.35 30 22.5C30 26.65 33.35 30 37.5 30C41.65 30 45 26.65 45 22.5C45 18.35 41.65 15 37.5 15Z" fill="#3CA2B3"/>
<path d="M67.5 55C66.1 55 65 53.9 65 52.5C65 51.1 66.1 50 67.5 50C68.9 50 70 48.9 70 47.5C70 44.1848 68.683 41.0054 66.3388 38.6612C63.9946 36.317 60.8152 35 57.5 35H52.5C51.1 35 50 33.9 50 32.5C50 31.1 51.1 30 52.5 30C56.65 30 60 26.65 60 22.5C60 18.35 56.65 15 52.5 15C51.1 15 50 13.9 50 12.5C50 11.1 51.1 10 52.5 10C55.8152 10 58.9946 11.317 61.3388 13.6612C63.683 16.0054 65 19.1848 65 22.5C65 25.6 63.9 28.4 62 30.6C69.45 32.6 75 39.4 75 47.5C75 51.65 71.65 55 67.5 55ZM7.5 55C3.35 55 0 51.65 0 47.5C0 39.4 5.5 32.6 13 30.6C11.15 28.4 10 25.6 10 22.5C10 19.1848 11.317 16.0054 13.6612 13.6612C16.0054 11.317 19.1848 10 22.5 10C23.9 10 25 11.1 25 12.5C25 13.9 23.9 15 22.5 15C18.35 15 15 18.35 15 22.5C15 26.65 18.35 30 22.5 30C23.9 30 25 31.1 25 32.5C25 33.9 23.9 35 22.5 35H17.5C14.1848 35 11.0054 36.317 8.66117 38.6612C6.31696 41.0054 5 44.1848 5 47.5C5 48.9 6.1 50 7.5 50C8.9 50 10 51.1 10 52.5C10 53.9 8.9 55 7.5 55ZM52.5 70H22.5C18.35 70 15 66.65 15 62.5V57.5C15 47.85 22.85 40 32.5 40H42.5C52.15 40 60 47.85 60 57.5V62.5C60 66.65 56.65 70 52.5 70ZM32.5 45C29.1848 45 26.0054 46.317 23.6612 48.6612C21.317 51.0054 20 54.1848 20 57.5V62.5C20 63.9 21.1 65 22.5 65H52.5C53.9 65 55 63.9 55 62.5V57.5C55 54.1848 53.683 51.0054 51.3388 48.6612C48.9946 46.317 45.8152 45 42.5 45H32.5Z" fill="#3CA2B3"/>
</svg>
