<svg width="80" height="80" viewBox="0 0 80 80" fill="none" xmlns="http://www.w3.org/2000/svg">
<path d="M18 27C18 24.6131 18.9482 22.3239 20.636 20.636C22.3239 18.9482 24.6131 18 27 18C29.387 18 31.6761 18.9482 33.364 20.636C35.0518 22.3239 36 24.6131 36 27C36 29.387 35.0518 31.6761 33.364 33.364C31.6761 35.0518 29.387 36 27 36C24.6131 36 22.3239 35.0518 20.636 33.364C18.9482 31.6761 18 29.387 18 27ZM27 14C23.5522 14 20.2456 15.3696 17.8076 17.8076C15.3696 20.2456 14 23.5522 14 27C14 30.4478 15.3696 33.7544 17.8076 36.1924C20.2456 38.6304 23.5522 40 27 40C30.4478 40 33.7544 38.6304 36.1924 36.1924C38.6304 33.7544 40 30.4478 40 27C40 23.5522 38.6304 20.2456 36.1924 17.8076C33.7544 15.3696 30.4478 14 27 14ZM49.748 60.58C51.9 61.46 54.608 62 58 62C65.524 62 69.684 59.328 71.876 56.264C73.0221 54.6575 73.7394 52.7851 73.96 50.824C73.9796 50.6418 73.993 50.4591 74 50.276V50C74 49.2121 73.8448 48.4319 73.5433 47.7039C73.2418 46.9759 72.7998 46.3145 72.2426 45.7574C71.6855 45.2002 71.0241 44.7583 70.2961 44.4567C69.5681 44.1552 68.7879 44 68 44H49.48C50.44 45.16 51.16 46.516 51.58 48H68C68.5304 48 69.0392 48.2107 69.4142 48.5858C69.7893 48.9609 70 49.4696 70 50V50.216L69.98 50.416C69.8298 51.685 69.3621 52.8957 68.62 53.936C67.312 55.772 64.472 58 58 58C55.072 58 52.888 57.544 51.252 56.876C50.924 57.996 50.448 59.26 49.748 60.58ZM6 52C6 49.8783 6.84285 47.8434 8.34315 46.3432C9.84344 44.8429 11.8783 44 14 44H40C42.1217 44 44.1566 44.8429 45.6569 46.3432C47.1572 47.8434 48 49.8783 48 52V52.336L47.992 52.496L47.952 53.036C47.6685 55.6283 46.7478 58.1101 45.272 60.26C42.468 64.32 37.052 68 27 68C16.948 68 11.532 64.32 8.728 60.264C7.25159 58.1129 6.33086 55.6297 6.048 53.036C6.02518 52.8032 6.00917 52.5698 6 52.336V52ZM10 52.24V52.312L10.028 52.644C10.2451 54.5614 10.929 56.3963 12.02 57.988C13.968 60.804 18.052 64 27 64C35.948 64 40.032 60.804 41.98 57.988C43.071 56.3963 43.7549 54.5614 43.972 52.644C43.988 52.492 43.996 52.3813 43.996 52.312L44 52.244V52C44 50.9391 43.5786 49.9217 42.8284 49.1716C42.0783 48.4214 41.0609 48 40 48H14C12.9391 48 11.9217 48.4214 11.1716 49.1716C10.4214 49.9217 10 50.9391 10 52V52.24ZM52 30C52 28.4087 52.6321 26.8826 53.7574 25.7574C54.8826 24.6321 56.4087 24 58 24C59.5913 24 61.1174 24.6321 62.2426 25.7574C63.3679 26.8826 64 28.4087 64 30C64 31.5913 63.3679 33.1174 62.2426 34.2426C61.1174 35.3679 59.5913 36 58 36C56.4087 36 54.8826 35.3679 53.7574 34.2426C52.6321 33.1174 52 31.5913 52 30ZM58 20C55.3478 20 52.8043 21.0536 50.9289 22.9289C49.0536 24.8043 48 27.3478 48 30C48 32.6522 49.0536 35.1957 50.9289 37.0711C52.8043 38.9464 55.3478 40 58 40C60.6522 40 63.1957 38.9464 65.0711 37.0711C66.9464 35.1957 68 32.6522 68 30C68 27.3478 66.9464 24.8043 65.0711 22.9289C63.1957 21.0536 60.6522 20 58 20Z" fill="#3CA2B3"/>
</svg>
