<svg width="24" height="24" viewBox="0 0 24 24" fill="none" xmlns="http://www.w3.org/2000/svg">
<path d="M12.6 14.3999C13.0774 14.3999 13.5353 14.5895 13.8728 14.9271C14.2104 15.2647 14.4 15.7225 14.4 16.1999V16.7999C14.4 19.1651 12.168 21.5999 8.40002 21.5999C4.63202 21.5999 2.40002 19.1651 2.40002 16.7999V16.1999C2.40002 15.7225 2.58967 15.2647 2.92723 14.9271C3.2648 14.5895 3.72263 14.3999 4.20002 14.3999H12.6ZM8.40002 6.5999C9.27524 6.5999 10.1146 6.94758 10.7335 7.56645C11.3523 8.18532 11.7 9.02469 11.7 9.8999C11.7 10.7751 11.3523 11.6145 10.7335 12.2334C10.1146 12.8522 9.27524 13.1999 8.40002 13.1999C7.52481 13.1999 6.68544 12.8522 6.06657 12.2334C5.4477 11.6145 5.10002 10.7751 5.10002 9.8999C5.10002 9.02469 5.4477 8.18532 6.06657 7.56645C6.68544 6.94758 7.52481 6.5999 8.40002 6.5999ZM19.2 2.3999C19.8053 2.40001 20.3882 2.62883 20.8319 3.04051C21.2756 3.45219 21.5474 4.01632 21.5928 4.6199L21.6 4.7999V7.1999C21.6002 7.80539 21.3715 8.38858 20.9598 8.83256C20.5481 9.27654 19.9838 9.54849 19.38 9.5939L19.2 9.5999H17.3988L15.9612 11.5199C15.3252 12.3671 14.0364 12.0239 13.8288 11.0687L13.8084 10.9355L13.8 10.7999V9.5219L13.7064 9.4979C13.2749 9.3676 12.8888 9.1184 12.5923 8.77884C12.2958 8.43927 12.1009 8.02307 12.03 7.5779L12.006 7.3787L12 7.1999V4.7999C11.9998 4.19441 12.2285 3.61122 12.6402 3.16724C13.0519 2.72327 13.6162 2.45131 14.22 2.4059L14.4 2.3999H19.2Z" fill="#3CA2B3"/>
</svg>
