<svg width="20" height="20" viewBox="0 0 20 20" fill="none" xmlns="http://www.w3.org/2000/svg">
<path d="M10.6 12.3999C11.0774 12.3999 11.5353 12.5895 11.8728 12.9271C12.2104 13.2647 12.4 13.7225 12.4 14.1999V14.7999C12.4 17.1651 10.168 19.5999 6.40002 19.5999C2.63202 19.5999 0.400024 17.1651 0.400024 14.7999V14.1999C0.400024 13.7225 0.589667 13.2647 0.927232 12.9271C1.2648 12.5895 1.72263 12.3999 2.20002 12.3999H10.6ZM6.40002 4.5999C7.27524 4.5999 8.11461 4.94758 8.73348 5.56645C9.35235 6.18532 9.70002 7.02469 9.70002 7.8999C9.70002 8.77512 9.35235 9.61449 8.73348 10.2334C8.11461 10.8522 7.27524 11.1999 6.40002 11.1999C5.52481 11.1999 4.68544 10.8522 4.06657 10.2334C3.4477 9.61449 3.10002 8.77512 3.10002 7.8999C3.10002 7.02469 3.4477 6.18532 4.06657 5.56645C4.68544 4.94758 5.52481 4.5999 6.40002 4.5999ZM17.2 0.399902C17.8053 0.400013 18.3882 0.628828 18.8319 1.04051C19.2756 1.45219 19.5474 2.01632 19.5928 2.6199L19.6 2.7999V5.1999C19.6002 5.80539 19.3715 6.38858 18.9598 6.83256C18.5481 7.27654 17.9838 7.54849 17.38 7.5939L17.2 7.5999H15.3988L13.9612 9.5199C13.3252 10.3671 12.0364 10.0239 11.8288 9.0687L11.8084 8.9355L11.8 8.7999V7.5219L11.7064 7.4979C11.2749 7.3676 10.8888 7.1184 10.5923 6.77884C10.2958 6.43927 10.1009 6.02307 10.03 5.5779L10.006 5.3787L10 5.1999V2.7999C9.99983 2.19441 10.2285 1.61122 10.6402 1.16724C11.0519 0.723267 11.6162 0.451314 12.22 0.405902L12.4 0.399902H17.2Z" fill="white"/>
</svg>
