<svg width="44" height="44" viewBox="0 0 44 44" fill="none" xmlns="http://www.w3.org/2000/svg">
<path d="M16.0785 4.58366C15.5774 4.7621 15.0885 4.9601 14.6118 5.17766M9.94596 8.18799C9.53051 8.55114 9.13166 8.93286 8.75063 9.33199M5.5588 13.8695C5.21658 14.5539 4.91896 15.261 4.66596 15.9907M3.69613 20.8857C3.6558 21.5988 3.65763 22.3267 3.6998 23.0398M4.70813 27.988C4.95258 28.6724 5.23613 29.3385 5.5588 29.9863M8.6003 34.3625C9.04763 34.8428 9.52002 35.2987 10.0175 35.7302M14.2561 38.5113C14.9834 38.8623 15.733 39.1649 16.5001 39.417M22.0001 40.3337C32.1256 40.3337 40.3335 32.1258 40.3335 22.0003C40.3335 11.8748 32.1256 3.66699 22.0001 3.66699" stroke="black" stroke-width="2" stroke-linecap="round" stroke-linejoin="round"/>
<path d="M22 24.75C22.7293 24.75 23.4288 24.4603 23.9445 23.9445C24.4603 23.4288 24.75 22.7293 24.75 22C24.75 21.2707 24.4603 20.5712 23.9445 20.0555C23.4288 19.5397 22.7293 19.25 22 19.25M22 24.75C21.2707 24.75 20.5712 24.4603 20.0555 23.9445C19.5397 23.4288 19.25 22.7293 19.25 22C19.25 21.2707 19.5397 20.5712 20.0555 20.0555C20.5712 19.5397 21.2707 19.25 22 19.25M22 24.75V29.3333M22 19.25V11" stroke="black" stroke-width="2" stroke-linecap="round" stroke-linejoin="round"/>
</svg>
