<svg width="80" height="80" viewBox="0 0 80 80" fill="none" xmlns="http://www.w3.org/2000/svg">
<path fill-rule="evenodd" clip-rule="evenodd" d="M25.8334 25.0002C25.8334 23.1398 26.1998 21.2976 26.9118 19.5788C27.6237 17.86 28.6672 16.2983 29.9827 14.9828C31.2982 13.6673 32.86 12.6238 34.5787 11.9119C36.2975 11.1999 38.1397 10.8335 40.0001 10.8335C41.8605 10.8335 43.7027 11.1999 45.4214 11.9119C47.1402 12.6238 48.7019 13.6673 50.0174 14.9828C51.3329 16.2983 52.3764 17.86 53.0884 19.5788C53.8003 21.2976 54.1668 23.1398 54.1667 25.0002C54.1667 28.7574 52.6742 32.3607 50.0174 35.0175C47.3607 37.6743 43.7573 39.1668 40.0001 39.1668C36.2428 39.1668 32.6395 37.6743 29.9827 35.0175C27.326 32.3607 25.8334 28.7574 25.8334 25.0002ZM40.0001 15.8335C37.5689 15.8335 35.2374 16.7993 33.5183 18.5183C31.7992 20.2374 30.8334 22.569 30.8334 25.0002C30.8334 27.4313 31.7992 29.7629 33.5183 31.482C35.2374 33.2011 37.5689 34.1668 40.0001 34.1668C42.4312 34.1668 44.7628 33.2011 46.4819 31.482C48.201 29.7629 49.1667 27.4313 49.1667 25.0002C49.1667 22.569 48.201 20.2374 46.4819 18.5183C44.7628 16.7993 42.4312 15.8335 40.0001 15.8335ZM26.6667 49.1668C24.6776 49.1668 22.77 49.957 21.3634 51.3635C19.9569 52.7701 19.1667 54.6777 19.1667 56.6668V60.6268C19.1667 60.6868 19.2101 60.7402 19.2701 60.7502C33.0001 62.9902 47.0034 62.9902 60.7301 60.7502C60.7592 60.7454 60.7857 60.7303 60.8046 60.7077C60.8236 60.685 60.8338 60.6563 60.8334 60.6268V56.6668C60.8334 54.6777 60.0432 52.7701 58.6367 51.3635C57.2302 49.957 55.3225 49.1668 53.3334 49.1668H52.2001C52.1107 49.1661 52.0219 49.1796 51.9368 49.2068L49.0534 50.1502C43.1707 52.0708 36.8295 52.0708 30.9468 50.1502L28.0601 49.2068C27.9771 49.1803 27.8905 49.1668 27.8034 49.1668H26.6667ZM14.1667 56.6668C14.1667 53.3516 15.4837 50.1722 17.8279 47.828C20.1721 45.4838 23.3515 44.1668 26.6667 44.1668H27.8001C28.4167 44.1668 29.0301 44.2668 29.6134 44.4535L32.5001 45.3968C37.3736 46.9876 42.6266 46.9876 47.5001 45.3968L50.3867 44.4535C50.9701 44.2635 51.5834 44.1668 52.1968 44.1668H53.3334C56.6486 44.1668 59.828 45.4838 62.1723 47.828C64.5165 50.1722 65.8334 53.3516 65.8334 56.6668V60.6268C65.8334 63.1402 64.0134 65.2802 61.5334 65.6835C47.2723 68.0116 32.7279 68.0116 18.4667 65.6835C17.2665 65.4881 16.1749 64.8721 15.3871 63.9457C14.5993 63.0193 14.1668 61.8429 14.1667 60.6268V56.6668Z" fill="#3CA2B3"/>
</svg>
