<svg width="80" height="80" viewBox="0 0 80 80" fill="none" xmlns="http://www.w3.org/2000/svg">
<path d="M36.6666 56.6668H23.3333C18.7222 56.6668 14.7922 55.0413 11.5433 51.7902C8.29441 48.5391 6.66885 44.6091 6.66663 40.0002C6.66441 35.3913 8.28996 31.4613 11.5433 28.2102C14.7966 24.9591 18.7266 23.3335 23.3333 23.3335H36.6666V30.0002H23.3333C20.5555 30.0002 18.1944 30.9724 16.25 32.9168C14.3055 34.8613 13.3333 37.2224 13.3333 40.0002C13.3333 42.7779 14.3055 45.1391 16.25 47.0835C18.1944 49.0279 20.5555 50.0002 23.3333 50.0002H36.6666V56.6668ZM26.6666 43.3335V36.6668H53.3333V43.3335H26.6666ZM43.3333 56.6668V50.0002H56.6666C59.4444 50.0002 61.8055 49.0279 63.75 47.0835C65.6944 45.1391 66.6666 42.7779 66.6666 40.0002C66.6666 37.2224 65.6944 34.8613 63.75 32.9168C61.8055 30.9724 59.4444 30.0002 56.6666 30.0002H43.3333V23.3335H56.6666C61.2777 23.3335 65.2088 24.9591 68.46 28.2102C71.7111 31.4613 73.3355 35.3913 73.3333 40.0002C73.3311 44.6091 71.7055 48.5402 68.4566 51.7935C65.2077 55.0468 61.2777 56.6713 56.6666 56.6668H43.3333Z" fill="#3CA2B3"/>
</svg>
