<svg width="80" height="80" viewBox="0 0 80 80" fill="none" xmlns="http://www.w3.org/2000/svg">
<path d="M48.3334 29.9998C48.3334 32.21 47.4554 34.3296 45.8926 35.8924C44.3298 37.4552 42.2102 38.3332 40.0001 38.3332C37.7899 38.3332 35.6703 37.4552 34.1075 35.8924C32.5447 34.3296 31.6667 32.21 31.6667 29.9998C31.6667 27.7897 32.5447 25.6701 34.1075 24.1073C35.6703 22.5445 37.7899 21.6665 40.0001 21.6665C42.2102 21.6665 44.3298 22.5445 45.8926 24.1073C47.4554 25.6701 48.3334 27.7897 48.3334 29.9998Z" stroke="#3CA2B3" stroke-width="5" stroke-linecap="round" stroke-linejoin="round"/>
<path d="M60 66.6665C60 70.3498 51.0466 73.3332 40 73.3332C28.9533 73.3332 20 70.3498 20 66.6665M44.19 58.3132C43.0641 59.3964 41.5624 60.0015 40 60.0015C38.4376 60.0015 36.9359 59.3964 35.81 58.3132C25.5133 48.3365 11.7166 37.1932 18.4433 21.0132C22.0866 12.2632 30.82 6.6665 40 6.6665C49.18 6.6665 57.9166 12.2665 61.5566 21.0132C68.2766 37.1698 54.5133 48.3698 44.19 58.3132Z" stroke="#3CA2B3" stroke-width="5" stroke-linecap="round" stroke-linejoin="round"/>
</svg>
