<svg width="48" height="48" viewBox="0 0 48 48" fill="none" xmlns="http://www.w3.org/2000/svg">
<g clip-path="url(#clip0_592_477)">
<path d="M36.75 0H11.25C5.0368 0 0 5.0368 0 11.25V36.75C0 42.9632 5.0368 48 11.25 48H36.75C42.9632 48 48 42.9632 48 36.75V11.25C48 5.0368 42.9632 0 36.75 0Z" fill="white"/>
<path d="M36.75 0H11.25C5.0368 0 0 5.0368 0 11.25V36.75C0 42.9632 5.0368 48 11.25 48H36.75C42.9632 48 48 42.9632 48 36.75V11.25C48 5.0368 42.9632 0 36.75 0Z" fill="#0A66C2"/>
<path d="M34.6342 40.8154H40.1223C40.3212 40.8154 40.5119 40.7365 40.6526 40.5958C40.7932 40.4552 40.8723 40.2645 40.8723 40.0656L40.8751 28.4703C40.8751 22.4097 39.5692 17.7513 32.4867 17.7513C29.7944 17.6511 27.2555 19.039 25.8854 21.3565C25.8787 21.3678 25.8685 21.3765 25.8564 21.3814C25.8443 21.3864 25.8308 21.3872 25.8182 21.3837C25.8056 21.3803 25.7944 21.3729 25.7864 21.3625C25.7784 21.3521 25.774 21.3394 25.7739 21.3263V19.0608C25.7739 18.8618 25.6949 18.6711 25.5542 18.5304C25.4135 18.3898 25.2228 18.3108 25.0239 18.3108H19.8157C19.6168 18.3108 19.426 18.3898 19.2854 18.5304C19.1447 18.6711 19.0657 18.8618 19.0657 19.0608V40.0645C19.0657 40.2634 19.1447 40.4542 19.2854 40.5948C19.426 40.7355 19.6168 40.8145 19.8157 40.8145H25.3034C25.5023 40.8145 25.6931 40.7355 25.8338 40.5948C25.9744 40.4542 26.0534 40.2634 26.0534 40.0645V29.6821C26.0534 26.7464 26.6103 23.9033 30.2499 23.9033C33.8377 23.9033 33.8842 27.2626 33.8842 29.8722V40.0654C33.8842 40.2644 33.9632 40.4551 34.1039 40.5958C34.2445 40.7364 34.4353 40.8154 34.6342 40.8154ZM7.12512 11.1798C7.12512 13.4043 8.95643 15.2346 11.1811 15.2346C13.4052 15.2344 15.2354 13.4029 15.2354 11.1788C15.2351 8.9547 13.4047 7.12451 11.1804 7.12451C8.9555 7.12451 7.12512 8.95526 7.12512 11.1798ZM8.42993 40.8154H13.925C14.1239 40.8154 14.3147 40.7364 14.4553 40.5958C14.596 40.4551 14.675 40.2644 14.675 40.0654V19.0608C14.675 18.8618 14.596 18.6711 14.4553 18.5304C14.3147 18.3898 14.1239 18.3108 13.925 18.3108H8.42993C8.23102 18.3108 8.04026 18.3898 7.8996 18.5304C7.75895 18.6711 7.67993 18.8618 7.67993 19.0608V40.0654C7.67993 40.2644 7.75895 40.4551 7.8996 40.5958C8.04026 40.7364 8.23102 40.8154 8.42993 40.8154Z" fill="white"/>
</g>
<defs>
<clipPath id="clip0_592_477">
<rect width="48" height="48" fill="white"/>
</clipPath>
</defs>
</svg>
