<svg width="24" height="24" viewBox="0 0 24 24" fill="none" xmlns="http://www.w3.org/2000/svg">
<path d="M5.45 16.9199C4.34837 15.8764 3.47942 14.6122 2.9 13.2099C2.80095 12.9792 2.74988 12.7309 2.74988 12.4799C2.74988 12.2289 2.80095 11.9805 2.9 11.7499C3.66971 9.87595 4.96076 8.26214 6.62 7.09986C8.1945 5.99957 10.0797 5.4319 12 5.47986C13.3815 5.44554 14.7518 5.73672 16 6.32986M18.56 8.04986C19.6553 9.09269 20.5204 10.353 21.1 11.7499C21.199 11.9805 21.2501 12.2289 21.2501 12.4799C21.2501 12.7309 21.199 12.9792 21.1 13.2099C20.3303 15.0838 19.0392 16.6976 17.38 17.8599C15.8055 18.9601 13.9203 19.5278 12 19.4799C10.6184 19.5142 9.24821 19.223 8 18.6299" stroke="#A8A9A9" stroke-width="1.5" stroke-linecap="round" stroke-linejoin="round"/>
<path d="M8.71 13.65C8.56932 13.276 8.49816 12.8795 8.5 12.48C8.5 11.5517 8.86875 10.6615 9.52513 10.0051C10.1815 9.34875 11.0717 8.98 12 8.98C12.4 8.978 12.796 9.05 13.17 9.19M15.29 11.31C15.43 11.684 15.502 12.08 15.5 12.48C15.5 13.4083 15.1313 14.2985 14.4749 14.9549C13.8185 15.6113 12.9283 15.98 12 15.98C11.6005 15.9818 11.204 15.9107 10.83 15.77M3 20L19 4" stroke="#A8A9A9" stroke-width="1.5" stroke-linecap="round" stroke-linejoin="round"/>
</svg>
