<svg width="42" height="42" viewBox="0 0 42 42" fill="none" xmlns="http://www.w3.org/2000/svg">
<path d="M3.5 10.4912C3.5 9.52875 4.2805 8.75 5.24125 8.75H19.2587C19.7206 8.75 20.1635 8.93345 20.49 9.26C20.8165 9.58655 21 10.0294 21 10.4912C21 10.9531 20.8165 11.396 20.49 11.7225C20.1635 12.049 19.7206 12.2325 19.2587 12.2325H5.24125C4.77944 12.2325 4.33655 12.049 4.01 11.7225C3.68345 11.396 3.5 10.9531 3.5 10.4912ZM3.5 21C3.5 20.0375 4.2805 19.2587 5.24125 19.2587H36.7587C37.2206 19.2587 37.6635 19.4422 37.99 19.7688C38.3165 20.0953 38.5 20.5382 38.5 21C38.5 21.4618 38.3165 21.9047 37.99 22.2312C37.6635 22.5578 37.2206 22.7413 36.7587 22.7413H5.24125C4.77944 22.7413 4.33655 22.5578 4.01 22.2312C3.68345 21.9047 3.5 21.4618 3.5 21ZM5.24125 29.7675C4.77944 29.7675 4.33655 29.951 4.01 30.2775C3.68345 30.604 3.5 31.0469 3.5 31.5087C3.5 31.9706 3.68345 32.4135 4.01 32.74C4.33655 33.0665 4.77944 33.25 5.24125 33.25H26.2588C26.7206 33.25 27.1635 33.0665 27.49 32.74C27.8165 32.4135 28 31.9706 28 31.5087C28 31.0469 27.8165 30.604 27.49 30.2775C27.1635 29.951 26.7206 29.7675 26.2588 29.7675H5.24125Z" fill="black"/>
</svg>
