<svg width="32" height="32" viewBox="0 0 32 32" fill="none" xmlns="http://www.w3.org/2000/svg">
<g clip-path="url(#clip0_527_305)">
<path fill-rule="evenodd" clip-rule="evenodd" d="M16.0001 5.33301C17.1401 5.33301 18.3094 5.36234 19.4427 5.41034L20.7814 5.47434L22.0627 5.55034L23.2627 5.63167L24.3587 5.71701C25.5483 5.80753 26.6678 6.31492 27.52 7.14981C28.3722 7.9847 28.9025 9.09353 29.0174 10.281L29.0707 10.8477L29.1707 12.061C29.2641 13.3183 29.3334 14.689 29.3334 15.9997C29.3334 17.3103 29.2641 18.681 29.1707 19.9383L29.0707 21.1517L29.0174 21.7183C28.9024 22.906 28.372 24.015 27.5195 24.8499C26.667 25.6849 25.5472 26.1921 24.3574 26.2823L23.2641 26.3663L22.0641 26.449L20.7814 26.525L19.4427 26.589C18.2959 26.6387 17.148 26.6645 16.0001 26.6663C14.8521 26.6645 13.7043 26.6387 12.5574 26.589L11.2187 26.525L9.93741 26.449L8.73741 26.3663L7.64141 26.2823C6.45183 26.1918 5.33235 25.6844 4.48014 24.8495C3.62793 24.0146 3.09767 22.9058 2.98275 21.7183L2.92941 21.1517L2.82941 19.9383C2.72786 18.6278 2.6736 17.3141 2.66675 15.9997C2.66675 14.689 2.73608 13.3183 2.82941 12.061L2.92941 10.8477L2.98275 10.281C3.09762 9.09375 3.6277 7.98508 4.47963 7.15022C5.33157 6.31535 6.45074 5.80783 7.64008 5.71701L8.73475 5.63167L9.93475 5.55034L11.2174 5.47434L12.5561 5.41034C13.7034 5.36064 14.8517 5.33486 16.0001 5.33301ZM13.3334 12.7663V19.233C13.3334 19.849 14.0001 20.233 14.5334 19.9263L20.1334 16.693C20.2553 16.6229 20.3565 16.5218 20.4269 16.4001C20.4972 16.2784 20.5343 16.1403 20.5343 15.9997C20.5343 15.8591 20.4972 15.721 20.4269 15.5992C20.3565 15.4775 20.2553 15.3765 20.1334 15.3063L14.5334 12.0743C14.4118 12.0041 14.2738 11.9671 14.1333 11.9672C13.9928 11.9672 13.8548 12.0042 13.7332 12.0745C13.6116 12.1447 13.5106 12.2458 13.4404 12.3675C13.3702 12.4892 13.3333 12.6272 13.3334 12.7677V12.7663Z" fill="white"/>
</g>
<defs>
<clipPath id="clip0_527_305">
<rect width="32" height="32" fill="white"/>
</clipPath>
</defs>
</svg>
