<svg width="80" height="80" viewBox="0 0 80 80" fill="none" xmlns="http://www.w3.org/2000/svg">
<path d="M69.7567 33.3C47.7234 30.2733 28.7234 46.6333 30.0001 68.3333M21.6667 26.6667C21.6667 28.4348 22.3691 30.1305 23.6194 31.3807C24.8696 32.631 26.5653 33.3333 28.3334 33.3333C30.1015 33.3333 31.7972 32.631 33.0475 31.3807C34.2977 30.1305 35.0001 28.4348 35.0001 26.6667C35.0001 24.8986 34.2977 23.2029 33.0475 21.9526C31.7972 20.7024 30.1015 20 28.3334 20C26.5653 20 24.8696 20.7024 23.6194 21.9526C22.3691 23.2029 21.6667 24.8986 21.6667 26.6667Z" stroke="#3CA2B3" stroke-width="4" stroke-linecap="round" stroke-linejoin="round"/>
<path d="M10 43.5529C19.2667 42.2696 27.5833 46.7463 32.08 53.8863" stroke="#3CA2B3" stroke-width="4" stroke-linecap="round" stroke-linejoin="round"/>
<path d="M10 31.3333C10 23.8667 10 20.1333 11.4533 17.28C12.7316 14.7713 14.7713 12.7316 17.28 11.4533C20.1333 10 23.8667 10 31.3333 10H48.6667C56.1333 10 59.8667 10 62.72 11.4533C65.2287 12.7316 67.2684 14.7713 68.5467 17.28C70 20.1333 70 23.8667 70 31.3333V48.6667C70 56.1333 70 59.8667 68.5467 62.72C67.2684 65.2287 65.2287 67.2684 62.72 68.5467C59.8667 70 56.1333 70 48.6667 70H31.3333C23.8667 70 20.1333 70 17.28 68.5467C14.7713 67.2684 12.7316 65.2287 11.4533 62.72C10 59.8667 10 56.1333 10 48.6667V31.3333Z" stroke="#3CA2B3" stroke-width="4" stroke-linecap="round" stroke-linejoin="round"/>
</svg>
