<svg width="38" height="38" viewBox="0 0 38 38" fill="none" xmlns="http://www.w3.org/2000/svg">
<path fill-rule="evenodd" clip-rule="evenodd" d="M10.6482 10.3565C9.33485 11.6505 8.33091 13.2245 7.71139 14.961C7.09187 16.6976 6.87277 18.5516 7.07048 20.3847C7.08888 20.6309 7.01069 20.8746 6.85248 21.0642C6.69427 21.2538 6.46847 21.3743 6.22292 21.4002C5.97737 21.4262 5.73137 21.3555 5.53704 21.2032C5.34271 21.0508 5.21533 20.8288 5.18188 20.5842C4.95384 18.467 5.20706 16.3257 5.92264 14.3201C6.63822 12.3145 7.79766 10.4965 9.31438 9.00179C14.8947 3.49749 23.8969 3.58679 29.4202 9.18799C34.9435 14.7873 34.9074 23.7895 29.3252 29.2938C26.7414 31.8465 23.2725 33.3042 19.6409 33.3636C18.2679 33.3881 16.8985 33.2146 15.5749 32.8487C15.332 32.7817 15.1257 32.6209 15.0013 32.4018C14.877 32.1826 14.8448 31.9231 14.9118 31.6802C14.9788 31.4373 15.1396 31.231 15.3587 31.1066C15.5778 30.9823 15.8374 30.9501 16.0803 31.0171C17.2282 31.3346 18.4159 31.4849 19.6067 31.4636C22.751 31.4134 25.7546 30.1515 27.9914 27.941C32.8193 23.1796 32.8592 15.382 28.0674 10.5218C23.2756 5.66159 15.4761 5.59509 10.6482 10.3565Z" fill="black"/>
<path fill-rule="evenodd" clip-rule="evenodd" d="M6.82847 21.5912C6.74539 21.6842 6.64478 21.76 6.5324 21.8142C6.42002 21.8684 6.29807 21.8999 6.17351 21.907C6.04895 21.9141 5.92422 21.8965 5.80644 21.8554C5.68866 21.8142 5.58014 21.7503 5.48707 21.6672L2.21907 18.7602C2.11861 18.6795 2.0356 18.5793 1.97509 18.4656C1.91458 18.3518 1.87783 18.227 1.86708 18.0986C1.85633 17.9702 1.87181 17.841 1.91256 17.7188C1.95332 17.5966 2.0185 17.4839 2.10415 17.3877C2.1898 17.2915 2.29413 17.2137 2.41079 17.159C2.52745 17.1044 2.65401 17.074 2.78276 17.0698C2.91152 17.0656 3.03979 17.0877 3.15976 17.1346C3.27974 17.1815 3.38892 17.2523 3.48067 17.3428L6.74867 20.2498C6.84201 20.3326 6.91812 20.433 6.97264 20.5452C7.02717 20.6575 7.05905 20.7794 7.06646 20.9039C7.07387 21.0285 7.05667 21.1533 7.01583 21.2712C6.975 21.3891 6.91133 21.4979 6.82847 21.5912Z" fill="black"/>
<path fill-rule="evenodd" clip-rule="evenodd" d="M5.35748 21.4716C5.43234 21.5714 5.52612 21.6554 5.63347 21.719C5.74081 21.7826 5.85963 21.8244 5.98313 21.842C6.10664 21.8597 6.2324 21.8528 6.35326 21.8218C6.47411 21.7909 6.58768 21.7364 6.68748 21.6616L10.4875 18.8116C10.689 18.6604 10.8223 18.4353 10.8579 18.1859C10.8936 17.9365 10.8287 17.6831 10.6775 17.4816C10.5263 17.28 10.3013 17.1467 10.0518 17.1111C9.80241 17.0755 9.54905 17.1404 9.34749 17.2916L5.54748 20.1416C5.34592 20.2927 5.21266 20.5178 5.17703 20.7672C5.1414 21.0166 5.20631 21.27 5.35748 21.4716ZM18.9995 12.3516C19.2514 12.3516 19.4931 12.4517 19.6712 12.6298C19.8494 12.808 19.9495 13.0496 19.9495 13.3016V19.9516C19.9495 20.2035 19.8494 20.4452 19.6712 20.6233C19.4931 20.8015 19.2514 20.9016 18.9995 20.9016C18.7475 20.9016 18.5059 20.8015 18.3277 20.6233C18.1496 20.4452 18.0495 20.2035 18.0495 19.9516V13.3016C18.0495 13.0496 18.1496 12.808 18.3277 12.6298C18.5059 12.4517 18.7475 12.3516 18.9995 12.3516Z" fill="black"/>
<path fill-rule="evenodd" clip-rule="evenodd" d="M25.6503 19.951C25.6503 20.2029 25.5502 20.4446 25.372 20.6227C25.1939 20.8009 24.9522 20.901 24.7003 20.901H19.0003C18.7483 20.901 18.5067 20.8009 18.3285 20.6227C18.1504 20.4446 18.0503 20.2029 18.0503 19.951C18.0503 19.699 18.1504 19.4574 18.3285 19.2792C18.5067 19.1011 18.7483 19.001 19.0003 19.001H24.7003C24.9522 19.001 25.1939 19.1011 25.372 19.2792C25.5502 19.4574 25.6503 19.699 25.6503 19.951Z" fill="black"/>
</svg>
