<svg width="80" height="80" viewBox="0 0 80 80" fill="none" xmlns="http://www.w3.org/2000/svg">
<path d="M43.3333 16.6673H70M43.3333 30.0007H60M43.3333 50.0006H70M43.3333 63.334H60M10 16.6673C10 15.7833 10.3512 14.9354 10.9763 14.3103C11.6014 13.6852 12.4493 13.334 13.3333 13.334H26.6667C27.5507 13.334 28.3986 13.6852 29.0237 14.3103C29.6488 14.9354 30 15.7833 30 16.6673V30.0007C30 30.8847 29.6488 31.7326 29.0237 32.3577C28.3986 32.9828 27.5507 33.334 26.6667 33.334H13.3333C12.4493 33.334 11.6014 32.9828 10.9763 32.3577C10.3512 31.7326 10 30.8847 10 30.0007V16.6673ZM10 50.0006C10 49.1166 10.3512 48.2687 10.9763 47.6436C11.6014 47.0185 12.4493 46.6673 13.3333 46.6673H26.6667C27.5507 46.6673 28.3986 47.0185 29.0237 47.6436C29.6488 48.2687 30 49.1166 30 50.0006V63.334C30 64.218 29.6488 65.0659 29.0237 65.691C28.3986 66.3161 27.5507 66.6673 26.6667 66.6673H13.3333C12.4493 66.6673 11.6014 66.3161 10.9763 65.691C10.3512 65.0659 10 64.218 10 63.334V50.0006Z" stroke="#3CA2B3" stroke-width="4" stroke-linecap="round" stroke-linejoin="round"/>
</svg>
