<svg width="80" height="80" viewBox="0 0 80 80" fill="none" xmlns="http://www.w3.org/2000/svg">
<path d="M71.4286 14.2861H8.57146C7.05594 14.2861 5.60249 14.8882 4.53085 15.9598C3.45922 17.0314 2.85718 18.4849 2.85718 20.0004V60.0004C2.85718 61.5159 3.45922 62.9694 4.53085 64.041C5.60249 65.1127 7.05594 65.7147 8.57146 65.7147H71.4286C72.9441 65.7147 74.3976 65.1127 75.4692 64.041C76.5409 62.9694 77.1429 61.5159 77.1429 60.0004V20.0004C77.1429 18.4849 76.5409 17.0314 75.4692 15.9598C74.3976 14.8882 72.9441 14.2861 71.4286 14.2861Z" stroke="#3CA2B3" stroke-width="4" stroke-linecap="round" stroke-linejoin="round"/>
<path d="M48.5714 31.4287H62.8571M48.5714 48.5716H62.8571M25.7143 48.5716C26.8399 48.5716 27.9545 48.3499 28.9944 47.9191C30.0343 47.4884 30.9792 46.857 31.7752 46.0611C32.5711 45.2651 33.2025 44.3202 33.6332 43.2803C34.064 42.2403 34.2857 41.1258 34.2857 40.0001C34.2857 38.8745 34.064 37.7599 33.6332 36.72C33.2025 35.6801 32.5711 34.7352 31.7752 33.9392C30.9792 33.1433 30.0343 32.5119 28.9944 32.0812C27.9545 31.6504 26.8399 31.4287 25.7143 31.4287C23.441 31.4287 21.2608 32.3318 19.6533 33.9392C18.0459 35.5467 17.1428 37.7269 17.1428 40.0001C17.1428 42.2734 18.0459 44.4536 19.6533 46.0611C21.2608 47.6685 23.441 48.5716 25.7143 48.5716Z" stroke="#3CA2B3" stroke-width="4" stroke-linecap="round" stroke-linejoin="round"/>
</svg>
