<svg width="80" height="80" viewBox="0 0 80 80" fill="none" xmlns="http://www.w3.org/2000/svg">
<g clip-path="url(#clip0_97_422)">
<path d="M71.111 13.334H8.88878C7.71004 13.334 6.57958 13.8022 5.74608 14.6357C4.91259 15.4692 4.44434 16.5997 4.44434 17.7784V62.2229C4.44434 63.4016 4.91259 64.5321 5.74608 65.3656C6.57958 66.1991 7.71004 66.6673 8.88878 66.6673H71.111C72.2897 66.6673 73.4202 66.1991 74.2537 65.3656C75.0872 64.5321 75.5555 63.4016 75.5555 62.2229V17.7784C75.5555 16.5997 75.0872 15.4692 74.2537 14.6357C73.4202 13.8022 72.2897 13.334 71.111 13.334ZM71.111 62.2229H8.88878V17.7784H71.111V62.2229Z" fill="#3CA2B3"/>
<path d="M20.0001 31.1105H60.0001C60.5894 31.1105 61.1547 30.8763 61.5714 30.4596C61.9882 30.0428 62.2223 29.4776 62.2223 28.8882C62.2223 28.2989 61.9882 27.7336 61.5714 27.3169C61.1547 26.9001 60.5894 26.666 60.0001 26.666H20.0001C19.4107 26.666 18.8455 26.9001 18.4287 27.3169C18.012 27.7336 17.7778 28.2989 17.7778 28.8882C17.7778 29.4776 18.012 30.0428 18.4287 30.4596C18.8455 30.8763 19.4107 31.1105 20.0001 31.1105Z" fill="#3CA2B3"/>
<path d="M20.0001 39.9991H60.0001C60.5894 39.9991 61.1547 39.765 61.5714 39.3483C61.9882 38.9315 62.2223 38.3663 62.2223 37.7769C62.2223 37.1875 61.9882 36.6223 61.5714 36.2056C61.1547 35.7888 60.5894 35.5547 60.0001 35.5547H20.0001C19.4107 35.5547 18.8455 35.7888 18.4287 36.2056C18.012 36.6223 17.7778 37.1875 17.7778 37.7769C17.7778 38.3663 18.012 38.9315 18.4287 39.3483C18.8455 39.765 19.4107 39.9991 20.0001 39.9991Z" fill="#3CA2B3"/>
<path d="M20.0001 48.8898H42.2223C42.8116 48.8898 43.3769 48.6556 43.7936 48.2389C44.2104 47.8221 44.4445 47.2569 44.4445 46.6675C44.4445 46.0782 44.2104 45.5129 43.7936 45.0962C43.3769 44.6794 42.8116 44.4453 42.2223 44.4453H20.0001C19.4107 44.4453 18.8455 44.6794 18.4287 45.0962C18.012 45.5129 17.7778 46.0782 17.7778 46.6675C17.7778 47.2569 18.012 47.8221 18.4287 48.2389C18.8455 48.6556 19.4107 48.8898 20.0001 48.8898Z" fill="#3CA2B3"/>
</g>
<defs>
<clipPath id="clip0_97_422">
<rect width="80" height="80" fill="white"/>
</clipPath>
</defs>
</svg>
