<svg width="201" height="191" viewBox="0 0 201 191" fill="none" xmlns="http://www.w3.org/2000/svg">
<g clip-path="url(#clip0_145_3768)">
<path d="M105.45 169.822L93.9161 159.322C52.9521 122.176 25.908 97.5979 25.908 67.6107C25.908 43.0323 45.157 23.8628 69.6559 23.8628C83.4961 23.8628 96.7795 30.3057 105.45 40.4074C114.12 30.3057 127.403 23.8628 141.243 23.8628C165.742 23.8628 184.991 43.0323 184.991 67.6107C184.991 97.5979 157.947 122.176 116.983 159.322L105.45 169.822Z" fill="#D26B81"/>
<g filter="url(#filter0_f_145_3768)">
<path d="M105 170.244L98.1848 164.041C73.9798 142.092 57.9998 127.569 57.9998 109.85C57.9998 95.3265 69.3738 83.9995 83.8498 83.9995C92.0278 83.9995 99.8768 87.8065 105 93.7755C110.123 87.8065 117.972 83.9995 126.15 83.9995C140.626 83.9995 152 95.3265 152 109.85C152 127.569 136.02 142.092 111.815 164.041L105 170.244Z" fill="#D26B81"/>
</g>
</g>
<path d="M104.1 161.947L98.3332 167.197L97.9966 166.827L95.4498 169.146L92.903 166.827L92.5664 167.197L86.7997 161.947L87.1363 161.577L84.2529 158.952L84.2522 158.952C83.2067 158.004 82.1704 157.064 81.1434 156.132L80.8074 156.502C78.7001 154.59 76.6318 152.711 74.6045 150.863L74.9414 150.494C72.8387 148.577 70.7804 146.693 68.7685 144.839L68.4297 145.207C66.3345 143.277 64.2893 141.379 62.2966 139.511L62.6386 139.146C60.5561 137.193 58.5312 135.273 56.5665 133.382L56.2197 133.742C54.1583 131.757 52.1629 129.804 50.2366 127.877L50.5901 127.523C48.5666 125.499 46.62 123.506 44.7538 121.537L44.3909 121.881C42.4121 119.794 40.5231 117.735 38.728 115.697L39.1032 115.366C37.204 113.21 35.4112 111.08 33.7297 108.968L33.3386 109.279C31.5446 107.026 29.876 104.793 28.3391 102.57L28.7503 102.286C27.1164 99.9237 25.6332 97.5761 24.3077 95.2328L23.8725 95.479C22.4574 92.9773 21.2198 90.4786 20.1687 87.9704L20.6298 87.7772C19.5374 85.1706 18.649 82.5561 17.9739 79.9192L17.4896 80.0432C16.7937 77.325 16.322 74.5812 16.0854 71.7968L16.5836 71.7545C16.4671 70.3839 16.4082 69.0032 16.4082 67.6107C16.4082 66.1726 16.4748 64.7535 16.6051 63.3561L16.1073 63.3097C16.3792 60.3935 16.9256 57.5699 17.7211 54.8641L18.2008 55.0052C19.0117 52.2467 20.0844 49.6123 21.391 47.129L20.9486 46.8962C22.2943 44.3387 23.8855 41.9393 25.6928 39.7272L26.08 40.0435C27.8768 37.8442 29.8895 35.8321 32.0887 34.0362L31.7725 33.649C33.9857 31.8417 36.3854 30.251 38.9422 28.9057L39.175 29.3482C41.6593 28.0411 44.2939 26.9684 47.0511 26.1573L46.91 25.6776C49.617 24.8813 52.4407 24.3345 55.3553 24.0622L55.4018 24.5601C56.7994 24.4295 58.2185 24.3628 59.6561 24.3628C60.7761 24.3628 61.8925 24.4055 63.0032 24.4893L63.0408 23.9907C65.3022 24.1615 67.5396 24.501 69.7346 24.9969L69.6244 25.4846C71.8098 25.9783 73.9532 26.6287 76.0361 27.4234L76.2143 26.9562C78.3296 27.7632 80.3828 28.7173 82.3553 29.8055L82.1138 30.2433C84.0763 31.3261 85.958 32.543 87.7399 33.881L88.0401 33.4812C89.8519 34.8416 91.5617 36.3261 93.1502 37.9212L92.7959 38.274C93.5853 39.0668 94.3442 39.887 95.0704 40.7331L95.4498 41.1752L95.8292 40.7331C96.5554 39.887 97.3144 39.0668 98.1038 38.274L97.7495 37.9212C99.338 36.3261 101.048 34.8416 102.86 33.4812L103.16 33.881C104.942 32.543 106.823 31.3261 108.786 30.2433L108.544 29.8055C110.517 28.7173 112.57 27.7632 114.685 26.9562L114.864 27.4234C116.946 26.6287 119.09 25.9783 121.275 25.4846L121.165 24.9969C123.36 24.501 125.597 24.1615 127.859 23.9907L127.896 24.4893C129.007 24.4055 130.124 24.3628 131.244 24.3628C132.681 24.3628 134.1 24.4295 135.498 24.5601L135.544 24.0622C138.459 24.3345 141.283 24.8813 143.99 25.6776L143.849 26.1573C146.606 26.9684 149.24 28.0411 151.725 29.3482L151.957 28.9057C154.514 30.251 156.914 31.8417 159.127 33.649L158.811 34.0362C161.01 35.8321 163.023 37.8442 164.82 40.0435L165.207 39.7272C167.014 41.9393 168.605 44.3387 169.951 46.8962L169.509 47.129C170.815 49.6123 171.888 52.2467 172.699 55.0052L173.179 54.8641C173.974 57.5699 174.52 60.3935 174.792 63.3097L174.295 63.3561C174.425 64.7535 174.491 66.1726 174.491 67.6107C174.491 69.0032 174.433 70.3839 174.316 71.7545L174.814 71.7968C174.578 74.5812 174.106 77.325 173.41 80.0432L172.926 79.9192C172.251 82.5561 171.362 85.1706 170.27 87.7772L170.731 87.9704C169.68 90.4786 168.442 92.9773 167.027 95.479L166.592 95.2328C165.266 97.5761 163.783 99.9237 162.149 102.286L162.561 102.57C161.024 104.793 159.355 107.026 157.561 109.279L157.17 108.968C155.488 111.08 153.696 113.21 151.796 115.366L152.172 115.697C150.377 117.735 148.488 119.794 146.509 121.881L146.146 121.537C144.28 123.506 142.333 125.499 140.31 127.523L140.663 127.877C138.737 129.804 136.741 131.757 134.68 133.742L134.333 133.382C132.368 135.273 130.344 137.193 128.261 139.146L128.603 139.511C126.61 141.379 124.565 143.277 122.47 145.207L122.131 144.839C120.119 146.693 118.061 148.577 115.958 150.494L116.295 150.863C114.268 152.711 112.2 154.59 110.092 156.502L109.756 156.132C108.729 157.064 107.693 158.004 106.647 158.952L106.647 158.952L103.763 161.577L104.1 161.947Z" stroke="black" stroke-dasharray="8 8"/>
<path d="M74.5145 85.2928C73.7323 85.2928 72.8621 85.2146 71.9039 85.0582C70.9652 84.9213 70.1145 84.6964 69.3519 84.3835L69.7625 80.7168H71.0239L71.5519 83.2395C71.8843 83.3177 72.3243 83.4057 72.8719 83.5035C73.4194 83.6013 73.9963 83.6502 74.6025 83.6502C75.7563 83.6502 76.6656 83.4057 77.3305 82.9168C78.015 82.4084 78.3572 81.724 78.3572 80.8635C78.3572 80.1204 78.1616 79.4946 77.7705 78.9862C77.399 78.4582 76.7439 78.0084 75.8052 77.6368L72.7252 76.4048C72.1581 76.1702 71.6399 75.8671 71.1705 75.4955C70.7208 75.1044 70.359 74.596 70.0852 73.9702C69.8114 73.3444 69.6745 72.5915 69.6745 71.7115C69.6745 70.108 70.1928 68.8564 71.2292 67.9568C72.2656 67.0573 73.7323 66.6075 75.6292 66.6075C76.4505 66.6075 77.2719 66.676 78.0932 66.8128C78.9145 66.9302 79.7163 67.1257 80.4985 67.3995L80.2052 71.3302H78.9732L78.3279 68.5435C78.0541 68.4457 77.663 68.3773 77.1545 68.3382C76.6461 68.2795 76.2159 68.2502 75.8639 68.2502C75.1599 68.2502 74.5341 68.3577 73.9865 68.5728C73.4585 68.7684 73.0381 69.0715 72.7252 69.4822C72.4319 69.8928 72.2852 70.4208 72.2852 71.0662C72.2852 71.868 72.5101 72.5035 72.9599 72.9728C73.4292 73.4226 74.0941 73.8235 74.9545 74.1755L77.9465 75.4075C79.0416 75.8182 79.8434 76.3951 80.3519 77.1382C80.8603 77.8813 81.1145 78.8591 81.1145 80.0715C81.1145 81.6751 80.5572 82.9462 79.4425 83.8848C78.3474 84.8235 76.7048 85.2928 74.5145 85.2928ZM87.1519 85.2635C86.5262 85.2635 86.0373 85.1462 85.6853 84.9115C85.3333 84.6768 85.0888 84.3835 84.9519 84.0315C84.8346 83.66 84.7759 83.2786 84.7759 82.8875V72.2688H82.6346V71.1248L85.0399 70.2742L86.3306 67.3408H87.6506V70.5968H92.0213V72.4742L87.6506 72.2982V83.0635L91.6106 83.6502V84.6475C91.1999 84.7648 90.7013 84.8724 90.1146 84.9702C89.5475 85.068 88.9902 85.1364 88.4426 85.1755C87.895 85.2342 87.4648 85.2635 87.1519 85.2635ZM99.9912 85.3222C98.7983 85.3222 97.7717 85.156 96.9112 84.8235C96.0703 84.4715 95.3761 83.9728 94.8286 83.3275C94.281 82.6626 93.8801 81.8804 93.6259 80.9808C93.3717 80.0617 93.2446 79.0253 93.2446 77.8715C93.2446 76.5613 93.3912 75.4368 93.6846 74.4982C93.9974 73.54 94.4277 72.7577 94.9752 72.1515C95.5423 71.5257 96.217 71.0662 96.9992 70.7728C97.801 70.46 98.6908 70.3035 99.6686 70.3035C101.605 70.3035 103.022 70.7533 103.922 71.6528C104.841 72.5524 105.301 73.9604 105.301 75.8768C105.301 76.0137 105.291 76.18 105.271 76.3755C105.271 76.5515 105.271 76.7373 105.271 76.9328C105.271 77.1088 105.252 77.2946 105.213 77.4902H96.4126V78.3408C96.4126 79.4946 96.5788 80.4626 96.9112 81.2448C97.2437 82.0271 97.7228 82.6137 98.3486 83.0048C98.9939 83.3764 99.7566 83.5622 100.637 83.5622C101.243 83.5622 101.927 83.5035 102.69 83.3862C103.453 83.2493 104.196 83.0831 104.919 82.8875L105.125 83.9142C104.362 84.3835 103.58 84.7355 102.778 84.9702C101.996 85.2048 101.067 85.3222 99.9912 85.3222ZM96.4712 76.2875L102.25 75.9648V75.3195C102.25 74.596 102.172 73.98 102.015 73.4715C101.859 72.9631 101.605 72.5817 101.253 72.3275C100.901 72.0733 100.431 71.9462 99.8446 71.9462C99.0428 71.9462 98.3974 72.1026 97.9086 72.4155C97.4392 72.7088 97.097 73.1782 96.8819 73.8235C96.6668 74.4493 96.5299 75.2706 96.4712 76.2875ZM106.638 89.8982V88.9008L109.16 88.1675V72.5915L106.52 72.3275V71.3888C107.264 71.1933 108.095 71.0173 109.014 70.8608C109.933 70.7044 110.862 70.5773 111.8 70.4795C112.759 70.3622 113.639 70.3035 114.44 70.3035C115.907 70.3035 117.12 70.4893 118.078 70.8608C119.056 71.2324 119.828 71.7604 120.395 72.4448C120.962 73.1097 121.363 73.9017 121.598 74.8208C121.852 75.74 121.979 76.7568 121.979 77.8715C121.979 79.26 121.735 80.492 121.246 81.5675C120.757 82.6431 120.033 83.484 119.075 84.0902C118.136 84.6964 116.953 84.9995 115.526 84.9995C115.154 84.9995 114.753 84.9702 114.323 84.9115C113.893 84.8528 113.512 84.7551 113.179 84.6182L113.531 83.4155C113.668 83.4351 113.834 83.4546 114.03 83.4742C114.225 83.4937 114.392 83.5035 114.528 83.5035C115.467 83.5035 116.22 83.3471 116.787 83.0342C117.354 82.7213 117.784 82.3008 118.078 81.7728C118.371 81.2253 118.557 80.6093 118.635 79.9248C118.733 79.2208 118.782 78.4973 118.782 77.7542C118.782 77.0893 118.733 76.4146 118.635 75.7302C118.557 75.0262 118.381 74.3906 118.107 73.8235C117.833 73.2564 117.413 72.7968 116.846 72.4448C116.298 72.0928 115.555 71.9168 114.616 71.9168C114.245 71.9168 113.834 71.956 113.384 72.0342C112.935 72.0928 112.495 72.1906 112.064 72.3275V88.1088L115.086 88.8422V89.8982H106.638ZM128.789 85.2928C128.125 85.2928 127.372 85.2244 126.531 85.0875C125.69 84.9702 124.937 84.7844 124.272 84.5302L124.683 80.9222H125.827L126.443 83.3568C126.736 83.4351 127.078 83.5133 127.469 83.5915C127.861 83.6697 128.32 83.7088 128.848 83.7088C129.806 83.7088 130.549 83.5231 131.077 83.1515C131.605 82.7604 131.869 82.1542 131.869 81.3328C131.869 80.8635 131.713 80.4822 131.4 80.1888C131.107 79.876 130.53 79.5728 129.669 79.2795L127.411 78.5168C126.413 78.1453 125.67 77.6564 125.181 77.0502C124.693 76.4244 124.448 75.6128 124.448 74.6155C124.448 73.2857 124.878 72.2395 125.739 71.4768C126.619 70.6946 127.949 70.3035 129.728 70.3035C130.413 70.3035 131.107 70.3817 131.811 70.5382C132.515 70.6946 133.199 70.9195 133.864 71.2128L133.424 74.5275H132.309L131.693 72.3862C131.439 72.2688 131.126 72.1711 130.755 72.0928C130.383 71.9951 130.021 71.9462 129.669 71.9462C128.789 71.9462 128.105 72.1222 127.616 72.4742C127.127 72.8066 126.883 73.276 126.883 73.8822C126.883 74.4493 127.02 74.8893 127.293 75.2022C127.587 75.4955 128.076 75.7693 128.76 76.0235L131.253 76.8742C132.075 77.1284 132.71 77.4413 133.16 77.8128C133.629 78.1648 133.952 78.5853 134.128 79.0742C134.324 79.5435 134.421 80.1204 134.421 80.8048C134.421 82.1737 133.942 83.2688 132.984 84.0902C132.045 84.892 130.647 85.2928 128.789 85.2928Z" fill="black"/>
<path d="M114.539 110.497C114.813 110.199 114.795 109.735 114.497 109.461L109.647 104.984C109.35 104.709 108.886 104.728 108.611 105.025C108.336 105.323 108.355 105.787 108.653 106.062L112.963 110.041L108.984 114.352C108.71 114.649 108.728 115.113 109.026 115.388C109.323 115.663 109.787 115.644 110.062 115.347L114.539 110.497ZM89.0291 111.732L114.029 110.732L113.97 109.267L88.9704 110.267L89.0291 111.732Z" fill="black"/>
<defs>
<filter id="filter0_f_145_3768" x="17.9998" y="43.9995" width="174" height="166.245" filterUnits="userSpaceOnUse" color-interpolation-filters="sRGB">
<feFlood flood-opacity="0" result="BackgroundImageFix"/>
<feBlend mode="normal" in="SourceGraphic" in2="BackgroundImageFix" result="shape"/>
<feGaussianBlur stdDeviation="20" result="effect1_foregroundBlur_145_3768"/>
</filter>
<clipPath id="clip0_145_3768">
<rect width="190.9" height="190.9" fill="white" transform="translate(9.99976 -0.000488281)"/>
</clipPath>
</defs>
</svg>
