<svg width="24" height="24" viewBox="0 0 24 24" fill="none" xmlns="http://www.w3.org/2000/svg">
<path d="M12.6 14.3999C13.0774 14.3999 13.5353 14.5895 13.8728 14.9271C14.2104 15.2647 14.4 15.7225 14.4 16.1999V16.7999C14.4 19.1651 12.168 21.5999 8.40002 21.5999C4.63202 21.5999 2.40002 19.1651 2.40002 16.7999V16.1999C2.40002 15.7225 2.58967 15.2647 2.92723 14.9271C3.2648 14.5895 3.72263 14.3999 4.20002 14.3999H12.6ZM12.6 15.5999H4.20002C4.04089 15.5999 3.88828 15.6631 3.77576 15.7756C3.66324 15.8882 3.60002 16.0408 3.60002 16.1999V16.7999C3.60002 18.5255 5.31842 20.3999 8.40002 20.3999C11.4816 20.3999 13.2 18.5255 13.2 16.7999V16.1999C13.2 16.0408 13.1368 15.8882 13.0243 15.7756C12.9118 15.6631 12.7592 15.5999 12.6 15.5999ZM8.40002 6.5999C9.27524 6.5999 10.1146 6.94758 10.7335 7.56645C11.3523 8.18532 11.7 9.02469 11.7 9.8999C11.7 10.7751 11.3523 11.6145 10.7335 12.2334C10.1146 12.8522 9.27524 13.1999 8.40002 13.1999C7.52481 13.1999 6.68544 12.8522 6.06657 12.2334C5.4477 11.6145 5.10002 10.7751 5.10002 9.8999C5.10002 9.02469 5.4477 8.18532 6.06657 7.56645C6.68544 6.94758 7.52481 6.5999 8.40002 6.5999ZM19.2 2.3999C19.8053 2.40001 20.3882 2.62883 20.8319 3.04051C21.2756 3.45219 21.5474 4.01632 21.5928 4.6199L21.6 4.7999V7.1999C21.6002 7.80539 21.3715 8.38858 20.9598 8.83256C20.5481 9.27654 19.9838 9.54849 19.38 9.5939L19.2 9.5999H17.3988L15.9612 11.5199C15.3252 12.3671 14.0364 12.0239 13.8288 11.0687L13.8084 10.9355L13.8 10.7999V9.5219L13.7064 9.4979C13.2749 9.3676 12.8888 9.1184 12.5923 8.77884C12.2958 8.43927 12.1009 8.02307 12.03 7.5779L12.006 7.3787L12 7.1999V4.7999C11.9998 4.19441 12.2285 3.61122 12.6402 3.16724C13.0519 2.72327 13.6162 2.45131 14.22 2.4059L14.4 2.3999H19.2ZM8.40002 7.7999C8.12425 7.7999 7.85117 7.85422 7.59639 7.95976C7.34161 8.06529 7.1101 8.21998 6.9151 8.41498C6.7201 8.60998 6.56541 8.84148 6.45988 9.09627C6.35434 9.35105 6.30002 9.62413 6.30002 9.8999C6.30002 10.1757 6.35434 10.4488 6.45988 10.7035C6.56541 10.9583 6.7201 11.1898 6.9151 11.3848C7.1101 11.5798 7.34161 11.7345 7.59639 11.84C7.85117 11.9456 8.12425 11.9999 8.40002 11.9999C8.95698 11.9999 9.49112 11.7787 9.88495 11.3848C10.2788 10.991 10.5 10.4569 10.5 9.8999C10.5 9.34295 10.2788 8.8088 9.88495 8.41498C9.49112 8.02115 8.95698 7.7999 8.40002 7.7999ZM19.2 3.5999H14.4C14.1061 3.59994 13.8224 3.70785 13.6028 3.90316C13.3831 4.09847 13.2428 4.3676 13.2084 4.6595L13.2 4.7999V7.1999C13.2001 7.49382 13.308 7.77751 13.5033 7.99715C13.6986 8.21679 13.9677 8.35711 14.2596 8.3915L14.4 8.3999H15V10.7999L16.8 8.3999H19.2C19.4939 8.39986 19.7776 8.29196 19.9973 8.09664C20.2169 7.90133 20.3572 7.6322 20.3916 7.3403L20.4 7.1999V4.7999C20.4 4.50598 20.2921 4.2223 20.0968 4.00266C19.9015 3.78301 19.6323 3.64269 19.3404 3.6083L19.2 3.5999Z" fill="#3CA2B3"/>
</svg>
