<svg width="24" height="24" viewBox="0 0 24 24" fill="none" xmlns="http://www.w3.org/2000/svg">
<path d="M12 17C12.2833 17 12.521 16.904 12.713 16.712C12.905 16.52 13.0007 16.2827 13 16C12.9993 15.7173 12.9033 15.48 12.712 15.288C12.5207 15.096 12.2833 15 12 15C11.7167 15 11.4793 15.096 11.288 15.288C11.0967 15.48 11.0007 15.7173 11 16C10.9993 16.2827 11.0953 16.5203 11.288 16.713C11.4807 16.9057 11.718 17.0013 12 17ZM11 13H13V7H11V13ZM8.25 21L3 15.75V8.25L8.25 3H15.75L21 8.25V15.75L15.75 21H8.25ZM9.1 19H14.9L19 14.9V9.1L14.9 5H9.1L5 9.1V14.9L9.1 19Z" fill="#3CA2B3"/>
</svg>
