<svg width="24" height="24" viewBox="0 0 24 24" fill="none" xmlns="http://www.w3.org/2000/svg">
<path d="M13.145 2.42016C12.5025 1.85995 11.4975 1.85995 10.855 2.42016L2.78247 9.45885C2.283 9.89436 2 10.5003 2 11.1342V19.6944C2 20.9677 3.11928 22 4.5 22H7C8.38072 22 9.5 20.9677 9.5 19.6944V15.8518C9.5 15.4274 9.8731 15.0833 10.3333 15.0833H13.6667C14.1269 15.0833 14.5 15.4274 14.5 15.8518V19.6944C14.5 20.9677 15.6193 22 17 22H19.5C20.8807 22 22 20.9677 22 19.6944V11.1342C22 10.5003 21.717 9.89436 21.2175 9.45885L13.145 2.42016Z" fill="white"/>
</svg>
