<svg width="24" height="24" viewBox="0 0 24 24" fill="none" xmlns="http://www.w3.org/2000/svg">
<path d="M19.5 3H17.25V2.25C17.25 2.05109 17.171 1.86032 17.0303 1.71967C16.8897 1.57902 16.6989 1.5 16.5 1.5C16.3011 1.5 16.1103 1.57902 15.9697 1.71967C15.829 1.86032 15.75 2.05109 15.75 2.25V3H8.25V2.25C8.25 2.05109 8.17098 1.86032 8.03033 1.71967C7.88968 1.57902 7.69891 1.5 7.5 1.5C7.30109 1.5 7.11032 1.57902 6.96967 1.71967C6.82902 1.86032 6.75 2.05109 6.75 2.25V3H4.5C4.10218 3 3.72064 3.15804 3.43934 3.43934C3.15804 3.72064 3 4.10218 3 4.5V19.5C3 19.8978 3.15804 20.2794 3.43934 20.5607C3.72064 20.842 4.10218 21 4.5 21H19.5C19.8978 21 20.2794 20.842 20.5607 20.5607C20.842 20.2794 21 19.8978 21 19.5V4.5C21 4.10218 20.842 3.72064 20.5607 3.43934C20.2794 3.15804 19.8978 3 19.5 3ZM12 15.75C11.7033 15.75 11.4133 15.662 11.1666 15.4972C10.92 15.3324 10.7277 15.0981 10.6142 14.824C10.5006 14.5499 10.4709 14.2483 10.5288 13.9574C10.5867 13.6664 10.7296 13.3991 10.9393 13.1893C11.1491 12.9796 11.4164 12.8367 11.7074 12.7788C11.9983 12.7209 12.2999 12.7506 12.574 12.8642C12.8481 12.9777 13.0824 13.17 13.2472 13.4166C13.412 13.6633 13.5 13.9533 13.5 14.25C13.5 14.6478 13.342 15.0294 13.0607 15.3107C12.7794 15.592 12.3978 15.75 12 15.75ZM19.5 7.5H4.5V4.5H6.75V5.25C6.75 5.44891 6.82902 5.63968 6.96967 5.78033C7.11032 5.92098 7.30109 6 7.5 6C7.69891 6 7.88968 5.92098 8.03033 5.78033C8.17098 5.63968 8.25 5.44891 8.25 5.25V4.5H15.75V5.25C15.75 5.44891 15.829 5.63968 15.9697 5.78033C16.1103 5.92098 16.3011 6 16.5 6C16.6989 6 16.8897 5.92098 17.0303 5.78033C17.171 5.63968 17.25 5.44891 17.25 5.25V4.5H19.5V7.5Z" fill="#3CA2B3"/>
</svg>
