<svg width="24" height="24" viewBox="0 0 24 24" fill="none" xmlns="http://www.w3.org/2000/svg">
<path d="M4.5 4.125C4.5 2.676 5.676 1.5 7.125 1.5H16.875C18.324 1.5 19.5 2.676 19.5 4.125V19.875C19.5 20.5712 19.2234 21.2389 18.7312 21.7312C18.2389 22.2234 17.5712 22.5 16.875 22.5H7.125C6.42881 22.5 5.76113 22.2234 5.26884 21.7312C4.77656 21.2389 4.5 20.5712 4.5 19.875V4.125ZM9 16.5C8.60218 16.5 8.22064 16.658 7.93934 16.9393C7.65804 17.2206 7.5 17.6022 7.5 18C7.5 18.3978 7.65804 18.7794 7.93934 19.0607C8.22064 19.342 8.60218 19.5 9 19.5H15C15.3978 19.5 15.7794 19.342 16.0607 19.0607C16.342 18.7794 16.5 18.3978 16.5 18C16.5 17.6022 16.342 17.2206 16.0607 16.9393C15.7794 16.658 15.3978 16.5 15 16.5H9Z" fill="#3CA2B3"/>
</svg>
