<svg width="24" height="24" viewBox="0 0 24 24" fill="none" xmlns="http://www.w3.org/2000/svg">
<g clip-path="url(#clip0_131_158)">
<path fill-rule="evenodd" clip-rule="evenodd" d="M17.6 3.2H6.4V0H4.8V3.2H2.4C1.76348 3.2 1.15303 3.45286 0.702944 3.90294C0.252856 4.35303 0 4.96348 0 5.6L0 18.4C0 19.0365 0.252856 19.647 0.702944 20.0971C1.15303 20.5471 1.76348 20.8 2.4 20.8H21.6C22.2365 20.8 22.847 20.5471 23.2971 20.0971C23.7471 19.647 24 19.0365 24 18.4V5.6C24 4.96348 23.7471 4.35303 23.2971 3.90294C22.847 3.45286 22.2365 3.2 21.6 3.2H19.2V0H17.6V3.2ZM4.8 9.6C4.8 8.75131 5.13714 7.93738 5.73726 7.33726C6.33737 6.73714 7.15131 6.4 8 6.4C8.84869 6.4 9.66263 6.73714 10.2627 7.33726C10.8629 7.93738 11.2 8.75131 11.2 9.6C11.2 10.4487 10.8629 11.2626 10.2627 11.8627C9.66263 12.4629 8.84869 12.8 8 12.8C7.15131 12.8 6.33737 12.4629 5.73726 11.8627C5.13714 11.2626 4.8 10.4487 4.8 9.6ZM3.8112 16.9888C4.20015 16.2109 4.79804 15.5566 5.53788 15.0994C6.27772 14.6421 7.13027 14.4 8 14.4C8.86973 14.4 9.72228 14.6421 10.4621 15.0994C11.202 15.5566 11.7999 16.2109 12.1888 16.9888L12.7168 18.0416C12.778 18.1637 12.8069 18.2994 12.8008 18.4358C12.7947 18.5722 12.7537 18.7048 12.6819 18.821C12.61 18.9371 12.5096 19.0329 12.3903 19.0992C12.2709 19.1656 12.1366 19.2003 12 19.2H4C3.86358 19.2 3.72942 19.1651 3.61028 19.0986C3.49115 19.0322 3.39098 18.9364 3.31931 18.8203C3.24765 18.7042 3.20685 18.5717 3.20081 18.4354C3.19477 18.2991 3.22368 18.1636 3.2848 18.0416L3.8112 16.9888ZM14.4 9.6H19.2V8H14.4V9.6ZM14.4 14.4H19.2V12.8H14.4V14.4Z" fill="#3CA2B3"/>
<path d="M24 22.3999V23.9999H0V22.3999H24Z" fill="#3CA2B3"/>
</g>
<defs>
<clipPath id="clip0_131_158">
<rect width="24" height="24" fill="white"/>
</clipPath>
</defs>
</svg>
