<svg width="80" height="80" viewBox="0 0 80 80" fill="none" xmlns="http://www.w3.org/2000/svg">
<path d="M4.5 37.5C3.39543 37.5 2.5 38.3954 2.5 39.5V54.25C2.5 55.3546 3.39543 56.25 4.5 56.25H54.25C55.3546 56.25 56.25 55.3546 56.25 54.25V39.5C56.25 38.3954 55.3546 37.5 54.25 37.5H4.5ZM51.25 49.25C51.25 50.3546 50.3546 51.25 49.25 51.25H9.5C8.39543 51.25 7.5 50.3546 7.5 49.25V44.5C7.5 43.3954 8.39543 42.5 9.5 42.5H49.25C50.3546 42.5 51.25 43.3954 51.25 44.5V49.25ZM60 39.5C60 38.3954 60.8954 37.5 62 37.5H63C64.1046 37.5 65 38.3954 65 39.5V54.25C65 55.3546 64.1046 56.25 63 56.25H62C60.8954 56.25 60 55.3546 60 54.25V39.5ZM68.75 39.5C68.75 38.3954 69.6454 37.5 70.75 37.5H71.75C72.8546 37.5 73.75 38.3954 73.75 39.5V54.25C73.75 55.3546 72.8546 56.25 71.75 56.25H70.75C69.6454 56.25 68.75 55.3546 68.75 54.25V39.5ZM60.2231 27.0781C59.6237 26.1738 59.3349 25.099 59.4003 24.0161C59.4657 22.9332 59.8818 21.9009 60.5856 21.0753C62.0406 19.3831 62.8851 17.2512 62.9837 15.0217C63.0823 12.7921 62.4292 10.594 61.1292 8.78L60.8134 8.33771C60.438 7.81201 59.8318 7.5 59.1858 7.5H54.5848C54.5297 7.5 54.4759 7.51724 54.431 7.5493C54.312 7.63425 54.2845 7.79954 54.3695 7.91848L57.0605 11.6859C57.7092 12.5911 58.035 13.6879 57.9858 14.8004C57.9367 15.9129 57.5153 16.9767 56.7892 17.8211C55.3788 19.4757 54.5451 21.5444 54.414 23.7147C54.283 25.8849 54.8617 28.0389 56.0628 29.8512L56.4016 30.3594C56.7725 30.9158 57.397 31.25 58.0657 31.25H59.2674C60.8649 31.25 61.8176 29.4696 60.9315 28.1405L60.2231 27.0781ZM71.4731 27.0781C70.8737 26.1738 70.5849 25.099 70.6503 24.0161C70.7157 22.9332 71.1318 21.9009 71.8356 21.0753C73.2906 19.3831 74.1351 17.2512 74.2337 15.0217C74.3323 12.7921 73.6792 10.594 72.3792 8.78L72.0634 8.33771C71.688 7.81201 71.0818 7.5 70.4358 7.5H65.8348C65.7797 7.5 65.7259 7.51724 65.681 7.5493C65.562 7.63425 65.5345 7.79954 65.6195 7.91848L68.3105 11.6859C68.9592 12.5911 69.285 13.6879 69.2358 14.8004C69.1867 15.9129 68.7653 16.9767 68.0392 17.8211C66.6288 19.4757 65.7951 21.5444 65.664 23.7147C65.533 25.8849 66.1117 28.0389 67.3128 29.8512L67.6516 30.3594C68.0225 30.9158 68.647 31.25 69.3157 31.25H70.5174C72.1149 31.25 73.0676 29.4696 72.1815 28.1405L71.4731 27.0781Z" fill="#3CA2B3"/>
</svg>
