<svg width="36" height="36" viewBox="0 0 36 36" fill="none" xmlns="http://www.w3.org/2000/svg">
<path d="M25.5 21C25.8978 21 26.2794 20.842 26.5607 20.5607C26.842 20.2794 27 19.8978 27 19.5C27 19.1022 26.842 18.7206 26.5607 18.4393C26.2794 18.158 25.8978 18 25.5 18C25.1022 18 24.7206 18.158 24.4393 18.4393C24.158 18.7206 24 19.1022 24 19.5C24 19.8978 24.158 20.2794 24.4393 20.5607C24.7206 20.842 25.1022 21 25.5 21ZM25.5 27C25.8978 27 26.2794 26.842 26.5607 26.5607C26.842 26.2794 27 25.8978 27 25.5C27 25.1022 26.842 24.7206 26.5607 24.4393C26.2794 24.158 25.8978 24 25.5 24C25.1022 24 24.7206 24.158 24.4393 24.4393C24.158 24.7206 24 25.1022 24 25.5C24 25.8978 24.158 26.2794 24.4393 26.5607C24.7206 26.842 25.1022 27 25.5 27ZM19.5 19.5C19.5 19.8978 19.342 20.2794 19.0607 20.5607C18.7794 20.842 18.3978 21 18 21C17.6022 21 17.2206 20.842 16.9393 20.5607C16.658 20.2794 16.5 19.8978 16.5 19.5C16.5 19.1022 16.658 18.7206 16.9393 18.4393C17.2206 18.158 17.6022 18 18 18C18.3978 18 18.7794 18.158 19.0607 18.4393C19.342 18.7206 19.5 19.1022 19.5 19.5ZM19.5 25.5C19.5 25.8978 19.342 26.2794 19.0607 26.5607C18.7794 26.842 18.3978 27 18 27C17.6022 27 17.2206 26.842 16.9393 26.5607C16.658 26.2794 16.5 25.8978 16.5 25.5C16.5 25.1022 16.658 24.7206 16.9393 24.4393C17.2206 24.158 17.6022 24 18 24C18.3978 24 18.7794 24.158 19.0607 24.4393C19.342 24.7206 19.5 25.1022 19.5 25.5ZM10.5 21C10.8978 21 11.2794 20.842 11.5607 20.5607C11.842 20.2794 12 19.8978 12 19.5C12 19.1022 11.842 18.7206 11.5607 18.4393C11.2794 18.158 10.8978 18 10.5 18C10.1022 18 9.72064 18.158 9.43934 18.4393C9.15804 18.7206 9 19.1022 9 19.5C9 19.8978 9.15804 20.2794 9.43934 20.5607C9.72064 20.842 10.1022 21 10.5 21ZM10.5 27C10.8978 27 11.2794 26.842 11.5607 26.5607C11.842 26.2794 12 25.8978 12 25.5C12 25.1022 11.842 24.7206 11.5607 24.4393C11.2794 24.158 10.8978 24 10.5 24C10.1022 24 9.72064 24.158 9.43934 24.4393C9.15804 24.7206 9 25.1022 9 25.5C9 25.8978 9.15804 26.2794 9.43934 26.5607C9.72064 26.842 10.1022 27 10.5 27Z" fill="black"/>
<path fill-rule="evenodd" clip-rule="evenodd" d="M10.5 2.625C10.7983 2.625 11.0845 2.74353 11.2955 2.9545C11.5064 3.16548 11.625 3.45163 11.625 3.75V4.8945C12.618 4.875 13.7115 4.875 14.9145 4.875H21.084C22.2885 4.875 23.382 4.875 24.375 4.8945V3.75C24.375 3.45163 24.4935 3.16548 24.7045 2.9545C24.9154 2.74353 25.2016 2.625 25.5 2.625C25.7983 2.625 26.0845 2.74353 26.2955 2.9545C26.5064 3.16548 26.625 3.45163 26.625 3.75V4.9905C27.015 5.0205 27.384 5.058 27.7335 5.1045C29.4915 5.3415 30.915 5.8395 32.0385 6.9615C33.1605 8.085 33.6585 9.5085 33.8955 11.2665C34.125 12.9765 34.125 15.159 34.125 17.916V21.084C34.125 23.841 34.125 26.025 33.8955 27.7335C33.6585 29.4915 33.1605 30.915 32.0385 32.0385C30.915 33.1605 29.4915 33.6585 27.7335 33.8955C26.0235 34.125 23.841 34.125 21.084 34.125H14.9175C12.1605 34.125 9.97647 34.125 8.26797 33.8955C6.50996 33.6585 5.08646 33.1605 3.96296 32.0385C2.84096 30.915 2.34296 29.4915 2.10596 27.7335C1.87646 26.0235 1.87646 23.841 1.87646 21.084V17.916C1.87646 15.159 1.87646 12.975 2.10596 11.2665C2.34296 9.5085 2.84096 8.085 3.96296 6.9615C5.08646 5.8395 6.50996 5.3415 8.26797 5.1045C8.61747 5.058 8.98796 5.0205 9.37646 4.9905V3.75C9.37646 3.45189 9.49479 3.16597 9.70544 2.95503C9.91609 2.7441 10.2019 2.6254 10.5 2.625ZM8.56497 7.335C7.05747 7.5375 6.18746 7.9185 5.55296 8.553C4.91846 9.1875 4.53746 10.0575 4.33496 11.5665C4.30046 11.8215 4.27196 12.0915 4.24796 12.375H31.752C31.728 12.09 31.6995 11.8215 31.665 11.565C31.4625 10.0575 31.0815 9.1875 30.447 8.553C29.8125 7.9185 28.9425 7.5375 27.4335 7.335C25.893 7.128 23.8605 7.125 21 7.125H15C12.1395 7.125 10.1085 7.128 8.56497 7.335ZM4.12496 18C4.12496 16.719 4.12496 15.6045 4.14446 14.625H31.8555C31.875 15.6045 31.875 16.719 31.875 18V21C31.875 23.8605 31.872 25.893 31.665 27.435C31.4625 28.9425 31.0815 29.8125 30.447 30.447C29.8125 31.0815 28.9425 31.4625 27.4335 31.665C25.893 31.872 23.8605 31.875 21 31.875H15C12.1395 31.875 10.1085 31.872 8.56497 31.665C7.05747 31.4625 6.18746 31.0815 5.55296 30.447C4.91846 29.8125 4.53746 28.9425 4.33496 27.4335C4.12796 25.893 4.12496 23.8605 4.12496 21V18Z" fill="black"/>
</svg>
