<svg width="125" height="25" viewBox="0 0 125 25" fill="none" xmlns="http://www.w3.org/2000/svg">
<path d="M11.5489 2.92705C11.8483 2.00574 13.1517 2.00574 13.4511 2.92705L15.0819 7.9463C15.2158 8.35833 15.5997 8.63729 16.033 8.63729H21.3105C22.2792 8.63729 22.682 9.8769 21.8983 10.4463L17.6287 13.5484C17.2782 13.803 17.1315 14.2544 17.2654 14.6664L18.8963 19.6857C19.1956 20.607 18.1411 21.3731 17.3574 20.8037L13.0878 17.7016C12.7373 17.447 12.2627 17.447 11.9122 17.7016L7.64258 20.8037C6.85887 21.3731 5.80439 20.607 6.10374 19.6857L7.7346 14.6664C7.86847 14.2544 7.72181 13.803 7.37132 13.5484L3.10169 10.4463C2.31798 9.8769 2.72075 8.63729 3.68948 8.63729H8.96703C9.40026 8.63729 9.78421 8.35833 9.91809 7.9463L11.5489 2.92705Z" fill="#E3B134"/>
<path d="M36.5489 2.92705C36.8483 2.00574 38.1517 2.00574 38.4511 2.92705L40.0819 7.9463C40.2158 8.35833 40.5997 8.63729 41.033 8.63729H46.3105C47.2792 8.63729 47.682 9.8769 46.8983 10.4463L42.6287 13.5484C42.2782 13.803 42.1315 14.2544 42.2654 14.6664L43.8963 19.6857C44.1956 20.607 43.1411 21.3731 42.3574 20.8037L38.0878 17.7016C37.7373 17.447 37.2627 17.447 36.9122 17.7016L32.6426 20.8037C31.8589 21.3731 30.8044 20.607 31.1037 19.6857L32.7346 14.6664C32.8685 14.2544 32.7218 13.803 32.3713 13.5484L28.1017 10.4463C27.318 9.8769 27.7208 8.63729 28.6895 8.63729H33.967C34.4003 8.63729 34.7842 8.35833 34.9181 7.9463L36.5489 2.92705Z" fill="#E3B134"/>
<path d="M61.5489 2.92705C61.8483 2.00574 63.1517 2.00574 63.4511 2.92705L65.0819 7.9463C65.2158 8.35833 65.5997 8.63729 66.033 8.63729H71.3105C72.2792 8.63729 72.682 9.8769 71.8983 10.4463L67.6287 13.5484C67.2782 13.803 67.1315 14.2544 67.2654 14.6664L68.8963 19.6857C69.1956 20.607 68.1411 21.3731 67.3574 20.8037L63.0878 17.7016C62.7373 17.447 62.2627 17.447 61.9122 17.7016L57.6426 20.8037C56.8589 21.3731 55.8044 20.607 56.1037 19.6857L57.7346 14.6664C57.8685 14.2544 57.7218 13.803 57.3713 13.5484L53.1017 10.4463C52.318 9.8769 52.7208 8.63729 53.6895 8.63729H58.967C59.4003 8.63729 59.7842 8.35833 59.9181 7.9463L61.5489 2.92705Z" fill="#E3B134"/>
<path d="M86.5489 2.92705C86.8483 2.00574 88.1517 2.00574 88.4511 2.92705L90.0819 7.9463C90.2158 8.35833 90.5997 8.63729 91.033 8.63729H96.3105C97.2792 8.63729 97.682 9.8769 96.8983 10.4463L92.6287 13.5484C92.2782 13.803 92.1315 14.2544 92.2654 14.6664L93.8963 19.6857C94.1956 20.607 93.1411 21.3731 92.3574 20.8037L88.0878 17.7016C87.7373 17.447 87.2627 17.447 86.9122 17.7016L82.6426 20.8037C81.8589 21.3731 80.8044 20.607 81.1037 19.6857L82.7346 14.6664C82.8685 14.2544 82.7218 13.803 82.3713 13.5484L78.1017 10.4463C77.318 9.8769 77.7208 8.63729 78.6895 8.63729H83.967C84.4003 8.63729 84.7842 8.35833 84.9181 7.9463L86.5489 2.92705Z" fill="#E3B134"/>
<path d="M111.549 2.92705C111.848 2.00574 113.152 2.00574 113.451 2.92705L115.082 7.9463C115.216 8.35833 115.6 8.63729 116.033 8.63729H121.311C122.279 8.63729 122.682 9.8769 121.898 10.4463L117.629 13.5484C117.278 13.803 117.132 14.2544 117.265 14.6664L118.896 19.6857C119.196 20.607 118.141 21.3731 117.357 20.8037L113.088 17.7016C112.737 17.447 112.263 17.447 111.912 17.7016L107.643 20.8037C106.859 21.3731 105.804 20.607 106.104 19.6857L107.735 14.6664C107.868 14.2544 107.722 13.803 107.371 13.5484L103.102 10.4463C102.318 9.8769 102.721 8.63729 103.689 8.63729H108.967C109.4 8.63729 109.784 8.35833 109.918 7.9463L111.549 2.92705Z" fill="#E3B134"/>
</svg>
