<svg width="80" height="80" viewBox="0 0 80 80" fill="none" xmlns="http://www.w3.org/2000/svg">
<path d="M51.6668 50L46.6668 35C41.1435 35 40.0002 39.4767 40.0002 45M40.0002 45V50M40.0002 45C40.0002 39.4767 38.8568 35 33.3335 35L28.3335 50" stroke="#3CA2B3" stroke-width="4" stroke-linecap="round" stroke-linejoin="round"/>
<path d="M73.2601 73.333C69.4267 71.0997 62.9734 66.0464 54.2934 66.693C52.0967 66.8564 50.9967 66.9397 49.9934 66.8597C49.6286 66.8474 49.2647 66.8151 48.9034 66.763C43.7967 65.5797 40.0001 61.1197 40.0001 55.7997M40.0001 55.7997V10.653M40.0001 55.7997C40.0001 61.1197 36.2034 65.583 31.0967 66.763C31.0401 66.7764 31.0101 66.7797 30.0067 66.8597C29.0034 66.9397 27.9034 66.8564 25.7067 66.693C17.0267 66.0464 10.5734 71.0997 6.74008 73.333M40.0001 10.653C40.0019 9.72976 40.3239 8.8357 40.9111 8.12323C41.4983 7.41076 42.3144 6.92398 43.2203 6.74586C44.1262 6.56774 45.0659 6.70931 45.8791 7.14643C46.6924 7.58355 47.3288 8.28918 47.6801 9.14303L56.7401 31.2897C60.2934 39.973 62.0701 44.313 65.1667 46.5464C65.3567 46.6864 65.7101 46.923 65.9101 47.0464C69.1467 49.0664 70.5434 49.0664 73.3334 49.0664M40.0001 10.653C39.9983 9.72976 39.6763 8.8357 39.0891 8.12323C38.5019 7.41076 37.6858 6.92398 36.7798 6.74586C35.8739 6.56774 34.9343 6.70931 34.121 7.14643C33.3078 7.58355 32.6713 8.28918 32.3201 9.14303L23.2601 31.293C19.7067 39.9764 17.9301 44.3197 14.8334 46.5497C14.5902 46.723 14.3423 46.8897 14.0901 47.0497C10.8534 49.0697 9.45675 49.0697 6.66675 49.0697" stroke="#3CA2B3" stroke-width="4" stroke-linecap="round" stroke-linejoin="round"/>
</svg>
